<?xml version="1.0" standalone="no"?>
<!DOCTYPE svg PUBLIC "-//W3C//DTD SVG 20010904//EN"
 "http://www.w3.org/TR/2001/REC-SVG-20010904/DTD/svg10.dtd">
<svg version="1.0" xmlns="http://www.w3.org/2000/svg"
 width="1308.000000pt" height="1308.000000pt" viewBox="0 0 1308.000000 1308.000000"
 preserveAspectRatio="xMidYMid meet">
<metadata>
Created by potrace 1.14, written by Peter Selinger 2001-2017
</metadata>
<g transform="translate(0.000000,1308.000000) scale(0.100000,-0.100000)"
fill="#000000" stroke="none">
<path d="M3100 11299 c-30 -4 -68 -10 -85 -13 -16 -2 -64 -14 -105 -25 -41
-12 -84 -23 -95 -26 -44 -10 -285 -127 -285 -138 0 -4 -4 -5 -10 -2 -5 3 -10
2 -10 -2 0 -5 -15 -17 -32 -28 -90 -52 -338 -290 -338 -324 0 -5 -3 -11 -7
-13 -11 -4 -65 -85 -94 -138 -13 -25 -28 -48 -32 -51 -5 -3 -8 -9 -8 -13 1 -3
-9 -30 -22 -59 -13 -28 -30 -69 -36 -89 -8 -26 -18 -37 -29 -35 -31 3 -166
-14 -227 -30 -86 -22 -98 -25 -112 -25 -7 -1 -13 -5 -13 -10 0 -4 -3 -7 -7 -6
-22 6 -220 -84 -235 -106 -4 -6 -8 -8 -8 -3 0 9 -89 -53 -160 -112 -65 -54
-141 -132 -178 -181 -15 -19 -29 -37 -32 -40 -15 -13 -82 -123 -113 -185 -142
-278 -174 -592 -92 -900 8 -33 18 -67 22 -75 14 -34 5 -52 -58 -117 -36 -37
-86 -95 -112 -128 -26 -33 -51 -65 -56 -71 -39 -49 -176 -294 -164 -294 3 0 1
-6 -5 -13 -10 -12 -50 -106 -58 -137 -2 -8 -11 -40 -19 -70 -9 -30 -18 -63
-20 -73 -2 -9 -6 -20 -8 -25 -3 -4 -8 -27 -11 -52 -3 -25 -8 -56 -11 -70 -16
-77 -28 -350 -16 -350 3 0 6 -24 6 -53 1 -99 41 -310 75 -392 33 -82 50 -130
50 -141 0 -8 4 -14 10 -14 5 0 9 -3 8 -7 -2 -8 42 -101 65 -138 34 -55 118
-188 127 -198 26 -34 101 -119 149 -170 58 -61 97 -87 128 -87 30 1 64 37 70
74 5 34 1 40 -63 107 -38 38 -78 80 -89 92 -39 42 -140 182 -160 222 -11 22
-22 42 -26 45 -36 33 -145 331 -164 450 -3 19 -8 42 -10 50 -16 55 -23 300
-12 410 13 122 47 276 76 345 5 11 17 43 27 70 53 150 197 375 318 498 62 63
57 62 132 17 64 -40 166 -90 188 -94 6 -1 20 -7 31 -13 11 -6 23 -11 28 -12 4
-1 8 -1 10 -2 1 0 9 -2 17 -4 8 -2 35 -8 60 -15 25 -6 61 -13 80 -16 19 -3 56
-9 81 -13 48 -8 247 -6 289 3 45 10 75 16 96 20 114 22 357 129 386 170 4 6 8
7 8 3 0 -17 124 88 214 181 53 54 69 90 60 128 -7 27 -66 58 -94 49 -11 -3
-57 -44 -103 -89 -112 -111 -257 -207 -357 -237 -22 -7 -40 -15 -40 -19 0 -4
-6 -7 -12 -7 -7 -1 -40 -8 -73 -16 -86 -23 -138 -30 -235 -31 -107 -2 -255 19
-315 44 -11 5 -38 14 -60 21 -44 13 -159 71 -217 110 -35 22 -61 67 -70 119
-2 8 -6 17 -10 20 -3 3 -9 21 -11 40 -3 19 -6 35 -7 35 -2 0 -3 5 -15 65 -10
52 -14 296 -5 338 5 20 11 51 13 68 8 52 50 184 60 184 4 0 6 4 3 8 -15 25
122 246 212 343 56 60 175 159 191 159 6 0 11 4 11 9 0 17 231 127 283 135 7
1 17 4 22 8 10 5 63 19 95 24 57 8 136 16 198 19 51 2 79 9 92 20 11 10 31 54
46 99 30 91 110 252 143 287 11 12 21 28 21 35 0 7 3 14 8 16 4 2 25 25 46 52
102 126 252 245 402 320 90 45 193 85 229 91 11 1 20 3 20 5 0 1 9 3 20 5 11
2 31 6 45 9 96 21 321 29 410 15 74 -11 105 -17 105 -19 0 -1 14 -4 30 -6 79
-13 312 -111 356 -150 8 -8 20 -14 25 -14 8 0 46 -28 87 -64 9 -9 20 -16 25
-16 4 -1 33 -27 65 -58 45 -45 59 -66 62 -92 7 -85 19 -141 47 -225 26 -82 93
-233 108 -245 3 -3 17 -23 30 -45 30 -48 42 -64 100 -129 75 -83 99 -106 110
-106 5 0 10 -4 10 -9 0 -10 144 -111 159 -111 6 0 11 -3 11 -8 0 -4 15 -14 33
-21 17 -8 57 -26 87 -40 30 -14 60 -26 65 -28 6 -1 35 -10 65 -19 120 -36 173
-28 188 30 10 37 -8 78 -40 93 -13 6 -45 16 -73 22 -102 23 -245 91 -342 162
-93 69 -233 217 -233 248 0 6 -4 11 -8 11 -8 0 -84 146 -102 195 -4 11 -13 31
-19 46 -7 14 -11 29 -10 35 1 5 -3 29 -11 54 -7 25 -14 64 -15 86 -1 23 -5 46
-8 51 -8 13 114 128 194 185 78 53 184 106 287 142 39 14 73 25 75 25 7 -2 84
13 97 20 16 8 305 6 355 -3 36 -6 59 -12 103 -25 17 -5 32 -7 32 -4 0 3 6 1
13 -4 6 -6 25 -13 40 -17 50 -12 213 -95 251 -128 11 -10 23 -18 27 -18 22 0
205 -181 251 -248 17 -26 34 -49 38 -52 3 -3 29 -52 57 -110 53 -107 89 -220
98 -300 11 -94 12 -160 3 -160 -5 0 -5 -7 1 -17 5 -10 5 -26 1 -39 -5 -12 -6
-24 -4 -27 9 -8 9 -397 1 -397 -4 0 -4 -8 2 -17 5 -10 5 -26 1 -39 -5 -12 -6
-24 -4 -27 9 -9 10 -317 1 -317 -4 0 -4 -8 2 -17 5 -10 5 -26 1 -39 -5 -12 -6
-24 -3 -28 10 -9 10 -76 1 -76 -5 0 -5 -7 1 -17 5 -10 5 -26 0 -40 -4 -12 -5
-25 0 -27 12 -8 2 -52 -12 -54 -68 -6 -150 -1 -212 13 -45 9 -165 66 -165 78
0 6 -3 8 -6 5 -8 -9 -100 79 -140 133 -38 52 -68 63 -113 42 -34 -17 -52 -58
-40 -91 21 -55 121 -165 202 -220 53 -37 129 -74 187 -90 25 -7 57 -17 71 -21
14 -4 70 -8 125 -9 l99 -1 6 -28 c3 -15 2 -38 -2 -49 -4 -12 -5 -24 -2 -28 10
-9 10 -76 1 -76 -5 0 -5 -7 1 -17 5 -10 5 -26 1 -39 -5 -12 -6 -24 -3 -28 10
-9 10 -76 1 -76 -5 0 -5 -7 1 -17 5 -10 5 -26 1 -39 -5 -12 -6 -24 -3 -28 10
-9 10 -76 1 -76 -5 0 -5 -7 1 -17 5 -10 5 -26 1 -39 -5 -12 -6 -24 -3 -28 10
-9 10 -76 1 -76 -5 0 -5 -7 1 -17 5 -10 5 -26 1 -39 -5 -12 -6 -24 -3 -28 10
-9 10 -76 1 -76 -5 0 -5 -7 1 -17 5 -10 5 -26 1 -39 -5 -12 -6 -24 -3 -28 10
-9 10 -76 1 -76 -5 0 -5 -7 1 -17 5 -10 5 -26 1 -39 -5 -12 -6 -24 -3 -28 9
-9 11 -76 2 -76 -5 0 -5 -8 -2 -17 4 -10 -29 18 -73 62 -44 45 -110 103 -148
129 -68 49 -236 141 -236 130 0 -4 -6 -2 -13 4 -14 12 -145 47 -217 58 -86 14
-289 8 -370 -11 -59 -14 -76 -17 -87 -18 -7 0 -13 -5 -13 -10 0 -6 -3 -8 -6
-4 -12 12 -146 -47 -254 -111 -161 -96 -202 -180 -112 -226 35 -17 51 -11 151
59 73 51 207 118 264 132 213 52 424 49 562 -7 157 -64 251 -124 351 -224 87
-87 138 -161 204 -296 4 -8 3 -25 -1 -38 -5 -12 -5 -22 -1 -22 4 0 7 -16 8
-35 0 -19 -3 -35 -8 -35 -5 0 -5 -8 1 -17 5 -10 5 -26 1 -39 -5 -12 -6 -24 -3
-28 10 -9 10 -76 1 -76 -5 0 -5 -7 1 -17 5 -10 5 -26 1 -39 -5 -12 -6 -24 -3
-28 10 -9 10 -76 1 -76 -5 0 -5 -7 1 -17 5 -10 5 -26 1 -39 -5 -12 -7 -24 -4
-27 8 -8 9 -317 1 -317 -4 0 -4 -8 2 -17 5 -10 5 -26 1 -39 -5 -12 -6 -25 -3
-28 8 -8 7 -91 -1 -105 -4 -6 -3 -11 1 -11 5 0 8 -16 8 -37 -2 -38 17 -66 52
-77 31 -10 77 9 91 36 16 33 18 4173 2 4173 -1 0 -3 9 -5 20 -8 46 -17 79 -26
97 -5 10 -7 18 -4 18 7 0 -29 91 -72 180 -96 199 -261 385 -447 504 -73 47
-182 101 -254 127 -31 11 -64 23 -72 26 -8 3 -22 7 -30 8 -8 2 -26 6 -40 9
-14 4 -36 8 -50 11 -14 3 -36 8 -50 11 -14 3 -88 8 -165 9 -143 3 -247 -8
-360 -39 -33 -10 -64 -18 -70 -19 -60 -14 -231 -100 -319 -161 -90 -63 -95
-67 -148 -118 -52 -50 -59 -51 -93 -13 -14 16 -165 127 -195 144 -63 35 -236
123 -240 122 -7 -1 -42 9 -65 19 -24 11 -185 50 -234 56 -70 9 -317 11 -371 3z"/>
<path d="M7767 11304 c-2 -2 -23 -7 -48 -10 -72 -10 -84 -12 -84 -14 0 -1 -8
-4 -50 -14 -11 -2 -33 -9 -50 -16 -16 -6 -32 -12 -35 -12 -3 0 -15 -4 -28 -9
-13 -5 -26 -9 -29 -9 -10 0 -146 -71 -198 -103 -99 -61 -214 -160 -295 -253
-43 -50 -90 -112 -90 -119 0 -3 -11 -21 -24 -38 -40 -55 -121 -238 -142 -322
-9 -33 -16 -72 -17 -82 0 -7 -3 -13 -6 -13 -3 0 -7 -24 -9 -53 -7 -117 -6
-4107 1 -4107 4 0 7 -6 7 -14 0 -22 42 -44 78 -41 33 3 55 21 71 60 9 20 15
20 662 14 360 -3 718 -7 797 -10 78 -2 142 0 142 4 0 5 5 5 11 1 16 -10 89
-11 89 -1 0 5 5 5 12 1 16 -10 228 -11 228 -1 0 5 5 5 11 1 16 -10 129 -11
129 -1 0 5 5 5 11 1 16 -9 729 -11 729 -1 0 5 5 5 12 1 16 -10 228 -11 228 -1
0 5 5 5 11 1 16 -10 129 -11 129 -1 0 5 5 5 11 1 16 -10 89 -11 89 -1 0 5 5 5
12 1 16 -10 228 -11 228 -1 0 5 5 5 11 1 16 -10 129 -11 129 -1 0 5 5 5 11 1
16 -10 89 -11 89 -1 0 5 5 5 12 1 16 -10 228 -11 228 -1 0 5 5 5 11 1 16 -9
689 -11 689 -1 0 5 5 5 12 1 15 -10 60 -10 75 -1 7 4 14 3 18 -2 4 -7 15 -7
31 -1 14 6 130 10 258 10 l234 0 11 -29 c16 -36 51 -56 88 -47 32 8 168 143
235 234 24 31 45 59 49 62 12 11 116 188 142 243 30 63 89 214 102 262 29 106
46 188 41 192 -3 3 -1 13 4 22 26 50 31 403 6 531 -2 8 -6 33 -10 55 -23 132
-83 309 -146 435 -78 156 -92 180 -101 180 -5 0 -9 5 -9 11 0 17 -108 156
-189 242 -78 82 -84 93 -68 115 5 6 7 12 3 12 -3 0 -1 12 5 28 6 15 13 38 15
52 3 14 9 41 14 60 18 70 24 137 25 260 0 137 -9 220 -31 302 -8 29 -16 58
-18 63 -21 84 -121 305 -138 305 -4 0 -8 5 -8 11 0 45 -237 301 -331 356 -16
9 -29 21 -29 26 0 4 -4 6 -9 3 -5 -4 -11 -2 -13 3 -1 5 -46 31 -98 58 -127 66
-254 109 -375 129 -21 3 -47 7 -58 10 -12 2 -44 4 -73 5 l-52 2 -21 57 c-99
272 -332 550 -591 707 -80 48 -209 109 -249 118 -9 2 -32 9 -51 16 -19 7 -42
14 -50 17 -8 3 -23 6 -32 7 -10 2 -20 4 -23 5 -8 4 -18 6 -70 15 -27 4 -59 10
-70 12 -40 9 -291 12 -340 4 -27 -5 -71 -12 -98 -15 -26 -4 -58 -11 -72 -16
-14 -5 -25 -7 -25 -4 0 4 -6 1 -13 -5 -8 -6 -17 -8 -20 -4 -4 3 -13 0 -22 -7
-8 -7 -15 -9 -15 -6 0 4 -9 2 -21 -4 -11 -6 -28 -13 -38 -15 -43 -8 -299 -139
-321 -164 -3 -4 -31 -25 -62 -48 -31 -24 -69 -55 -83 -69 -26 -26 -26 -26 -48
-7 -12 11 -40 35 -61 54 -21 19 -45 40 -52 47 -7 6 -17 12 -22 12 -6 0 -12 4
-14 8 -11 27 -247 156 -323 178 -5 1 -41 12 -80 24 -38 11 -83 22 -100 25 -16
2 -52 8 -79 13 -45 9 -311 14 -319 6z"/>
<path d="M2811 10370 c-16 -13 -23 -30 -23 -55 0 -43 13 -60 61 -82 97 -46
223 -150 294 -244 22 -29 96 -180 101 -206 2 -10 9 -36 15 -58 6 -23 13 -74
15 -115 6 -105 21 -136 68 -144 30 -4 64 12 82 38 24 38 9 216 -29 331 -43
131 -122 259 -220 357 -62 63 -113 108 -121 108 -2 0 -27 15 -56 33 -93 59
-149 70 -187 37z"/>
<path d="M4315 8882 c-2 -2 -27 -6 -57 -8 -29 -3 -62 -6 -73 -8 -58 -11 -166
-39 -210 -53 -27 -10 -52 -18 -55 -18 -40 -11 -270 -127 -270 -136 0 -4 -9
-11 -20 -14 -11 -3 -26 -12 -32 -18 -7 -7 -37 -30 -65 -51 -29 -21 -53 -42
-53 -47 0 -5 -4 -9 -10 -9 -18 0 -168 -162 -215 -232 -62 -94 -77 -120 -115
-192 -42 -81 -117 -290 -125 -349 -2 -17 -9 -56 -15 -86 -13 -67 -13 -137 0
-161 22 -40 97 -45 128 -7 13 16 16 27 26 107 10 78 17 113 38 185 21 77 57
174 70 191 4 6 5 14 1 17 -3 4 -1 7 5 7 7 0 12 9 12 20 0 11 5 20 10 20 6 0
10 6 10 13 0 7 19 41 42 77 113 177 281 336 448 426 19 10 43 25 53 33 9 8 17
11 17 7 0 -3 15 1 33 11 17 9 35 16 40 15 4 -1 7 3 7 8 0 6 3 9 8 8 10 -2 65
13 77 22 30 22 206 54 349 64 63 4 100 40 92 90 -6 34 -42 70 -63 62 -7 -3
-13 -2 -13 3 0 7 -68 10 -75 3z"/>
<path d="M1487 6919 c-16 -4 -34 -13 -42 -19 -13 -11 -29 -90 -50 -250 -6 -46
-14 -106 -20 -150 -2 -14 -6 -47 -10 -75 -3 -27 -7 -61 -9 -75 -2 -14 -7 -47
-11 -73 -4 -27 -8 -59 -11 -70 -2 -12 -2 -38 2 -59 4 -29 12 -39 37 -49 26
-11 367 -13 1810 -14 1713 0 1780 1 1808 18 16 11 29 26 30 35 7 108 5 411 -4
429 -14 31 -32 37 -148 47 -41 4 -94 10 -119 13 -25 3 -72 6 -105 8 -33 2 -60
4 -60 5 0 2 -152 16 -270 24 -33 3 -60 5 -60 6 0 1 -22 3 -50 5 -27 1 -50 4
-50 5 0 1 -18 3 -40 5 -69 4 -198 15 -240 20 -22 2 -74 7 -115 10 -41 4 -88 8
-105 10 -38 5 -117 12 -220 21 -44 4 -91 8 -105 9 -14 2 -61 6 -105 10 -44 4
-93 9 -110 11 -28 3 -151 13 -240 19 -22 2 -40 4 -40 5 0 1 -16 3 -35 5 -32 2
-63 4 -245 22 -62 5 -94 8 -205 17 -36 3 -90 8 -120 12 -30 3 -77 7 -105 9
-27 2 -75 6 -105 10 -79 8 -136 13 -215 20 -38 3 -86 8 -106 11 -20 2 -66 6
-102 8 -36 2 -69 6 -73 8 -5 3 -22 2 -37 -3z"/>
<path d="M237 5693 c-1 -1 -14 -3 -27 -5 -63 -10 -158 -84 -175 -137 -3 -12
-10 -21 -14 -21 -10 0 -11 -8 -15 -100 -3 -63 0 -82 20 -122 30 -60 68 -100
124 -130 49 -26 67 -30 148 -31 l52 0 0 -391 c0 -389 4 -565 14 -641 5 -38 12
-86 22 -165 2 -19 7 -43 10 -52 2 -9 7 -27 9 -40 3 -13 9 -44 15 -69 6 -26 13
-53 14 -60 2 -8 6 -21 9 -29 3 -8 11 -35 17 -60 14 -55 86 -252 111 -301 10
-20 16 -39 13 -41 -2 -3 2 -11 11 -18 8 -7 15 -21 15 -31 0 -11 5 -19 11 -19
5 0 7 -4 4 -10 -3 -5 -1 -10 6 -10 7 0 10 -3 7 -6 -5 -5 24 -59 113 -209 13
-22 27 -41 31 -43 4 -2 8 -8 8 -13 0 -5 26 -44 57 -87 170 -232 370 -432 598
-597 15 -11 34 -27 43 -35 9 -8 16 -13 16 -11 1 2 39 -21 86 -51 99 -63 273
-153 380 -196 113 -46 245 -92 261 -92 8 0 20 -5 27 -12 7 -7 12 -9 12 -6 0 4
24 0 53 -9 28 -8 61 -17 72 -18 11 -2 32 -6 48 -9 39 -9 77 -15 117 -22 19 -3
46 -7 60 -9 159 -27 564 -27 720 -1 14 3 41 7 60 10 19 3 46 8 60 11 14 3 50
10 80 16 65 12 85 17 85 19 0 1 9 3 20 5 34 6 96 26 195 62 52 18 104 36 114
38 33 7 336 158 336 167 0 4 6 8 13 8 12 0 162 94 185 117 7 7 17 13 22 13 5
0 15 6 22 13 7 6 47 39 88 72 128 102 233 202 345 331 75 85 93 109 167 213
26 36 51 71 56 76 4 6 9 13 10 18 1 4 17 32 37 62 19 31 35 58 35 60 0 3 11
23 25 45 14 22 25 46 25 54 0 8 4 16 8 18 10 4 103 214 122 273 7 22 17 46 23
53 5 6 7 12 3 12 -3 0 1 17 9 38 17 45 48 151 50 172 0 9 4 20 7 25 3 6 9 32
12 59 4 27 9 52 11 56 2 3 6 26 10 50 3 25 8 56 10 70 21 139 24 203 25 575
l1 311 59 17 c33 10 68 20 77 22 10 2 38 8 63 15 25 6 54 12 65 14 36 7 90 16
115 21 14 3 39 7 55 9 17 2 50 8 75 12 25 4 61 8 80 10 19 1 78 5 130 9 190
15 480 5 645 -21 22 -4 51 -8 65 -10 14 -1 36 -5 50 -9 14 -3 37 -6 53 -7 15
-1 27 -4 27 -8 0 -4 10 -6 22 -5 12 1 57 -8 100 -21 43 -12 80 -21 81 -21 1 0
23 -6 50 -13 l47 -14 1 -316 c0 -173 2 -337 4 -365 9 -138 30 -293 51 -380 1
-5 4 -21 7 -35 16 -81 83 -304 107 -355 5 -11 21 -49 36 -85 39 -95 97 -214
106 -218 4 -2 6 -8 2 -13 -3 -5 0 -9 5 -9 6 0 11 -4 11 -10 0 -11 46 -90 99
-169 20 -29 41 -61 46 -70 11 -18 64 -89 80 -107 6 -7 26 -31 45 -55 121 -151
347 -365 486 -459 26 -18 182 -120 209 -137 26 -16 314 -162 320 -163 3 0 21
-7 41 -15 20 -8 42 -15 50 -15 7 0 16 -5 19 -10 3 -6 16 -10 29 -10 12 0 26
-4 32 -9 5 -5 34 -16 64 -25 30 -8 80 -22 110 -31 30 -9 62 -17 70 -17 8 0 29
-4 45 -9 17 -5 48 -11 70 -15 22 -3 49 -7 60 -9 19 -3 39 -6 160 -22 69 -10
445 -10 530 0 77 8 95 11 220 32 17 3 59 12 95 20 36 8 76 17 90 21 42 9 274
86 285 94 6 4 28 13 50 20 22 7 49 18 60 23 11 6 22 12 25 12 17 3 233 119
272 146 14 11 31 19 37 19 6 0 11 4 11 9 0 5 14 14 30 21 16 7 30 16 30 21 0
5 6 9 14 9 8 0 16 3 18 8 2 4 23 21 47 37 25 17 55 39 67 50 13 11 40 34 60
50 238 194 487 494 620 745 16 30 32 57 36 60 3 3 10 18 13 33 4 15 10 27 14
27 4 0 13 17 21 38 7 20 25 64 40 97 34 76 52 123 51 130 -1 3 5 18 14 35 8
16 15 38 15 50 0 11 4 20 8 20 5 0 9 6 10 13 3 27 9 53 14 67 7 16 44 177 52
225 3 17 9 46 12 65 4 19 8 51 10 70 1 19 3 35 4 35 3 0 8 66 14 160 3 44 5
267 6 496 l0 415 43 -1 c56 -1 135 17 172 40 188 119 175 383 -25 486 l-45 23
-6318 1 c-3475 0 -6319 0 -6320 -2z m5208 -256 c0 -53 4 -97 8 -97 5 0 5 -5 1
-11 -9 -16 -11 -109 -1 -109 5 0 5 -5 1 -11 -8 -13 -11 -109 -4 -109 5 0 4
-634 -2 -822 -2 -60 -5 -108 -8 -108 -3 0 -5 -21 -6 -48 0 -26 -4 -65 -8 -87
-30 -181 -42 -232 -88 -380 -18 -55 -31 -103 -30 -107 1 -5 -3 -8 -10 -8 -6 0
-9 -3 -5 -6 13 -13 -183 -424 -213 -444 -4 -3 -13 -16 -20 -30 -18 -34 -150
-215 -196 -269 -67 -77 -226 -235 -289 -287 -33 -27 -62 -52 -65 -55 -3 -4
-25 -21 -50 -38 -181 -127 -304 -199 -450 -265 -47 -21 -97 -45 -112 -53 -16
-8 -28 -11 -28 -7 0 3 -6 2 -12 -3 -20 -16 -230 -82 -313 -99 -11 -2 -42 -8
-70 -14 -82 -17 -98 -20 -145 -25 -25 -3 -61 -7 -80 -10 -65 -9 -336 -20 -350
-15 -3 1 -30 3 -60 5 -67 3 -176 14 -210 20 -14 3 -43 7 -65 10 -48 6 -174 33
-195 42 -8 3 -18 6 -22 5 -8 -2 -242 75 -286 94 -17 8 -49 21 -70 30 -78 34
-237 117 -240 125 -2 5 -9 9 -16 9 -24 0 -285 184 -375 265 -86 76 -223 217
-285 295 -38 47 -72 87 -75 90 -7 6 -84 121 -90 134 -2 5 -10 16 -17 25 -8 9
-14 20 -13 25 0 5 -3 12 -8 15 -8 5 -103 168 -103 176 0 2 -15 36 -34 77 -39
82 -71 161 -92 228 -9 25 -18 52 -21 60 -3 8 -7 20 -8 25 -2 6 -16 64 -33 130
-16 66 -33 141 -36 166 -4 25 -9 57 -11 70 -2 13 -7 42 -11 64 -7 44 -17 1402
-10 1420 3 8 698 11 2467 11 l2464 -1 0 -98z m7122 -572 c-2 -368 -6 -697 -10
-730 -4 -33 -9 -76 -12 -95 -2 -19 -4 -35 -5 -35 -1 0 -3 -14 -6 -32 -3 -29
-38 -185 -49 -223 -2 -8 -12 -42 -21 -75 -9 -33 -19 -64 -22 -70 -4 -5 -7 -16
-8 -23 -3 -17 -63 -167 -81 -202 -7 -14 -13 -31 -13 -37 0 -7 -4 -13 -9 -13
-5 0 -12 -11 -15 -24 -3 -13 -22 -52 -41 -86 -19 -34 -35 -66 -35 -71 0 -5 -4
-9 -10 -9 -5 0 -10 -5 -10 -11 0 -17 -116 -186 -199 -289 -72 -90 -211 -234
-297 -310 -81 -71 -143 -120 -152 -120 -6 0 -12 -4 -14 -8 -5 -12 -173 -124
-243 -162 -91 -50 -233 -120 -242 -120 -4 0 -21 -7 -38 -16 -16 -9 -37 -18
-45 -20 -8 -2 -54 -17 -102 -34 -47 -16 -95 -31 -105 -33 -10 -2 -25 -7 -33
-10 -8 -3 -28 -9 -45 -13 -16 -4 -32 -8 -35 -9 -3 -1 -25 -5 -50 -9 -43 -8
-57 -11 -97 -20 -10 -2 -47 -7 -83 -11 -36 -4 -68 -9 -71 -11 -4 -2 -63 -6
-130 -10 -68 -3 -128 -5 -134 -6 -5 0 -62 3 -125 7 -63 3 -136 7 -162 8 -27 1
-48 4 -48 7 0 3 -10 7 -22 8 -28 2 -102 11 -105 11 -2 1 -5 2 -8 2 -28 8 -126
31 -145 35 -14 2 -41 10 -60 16 -19 7 -40 13 -46 14 -14 2 -130 42 -159 54
-11 4 -45 18 -75 30 -81 32 -294 140 -298 151 -2 5 -8 9 -13 9 -19 0 -238 152
-334 231 -43 36 -264 259 -295 298 -19 24 -40 48 -45 55 -28 30 -135 184 -135
194 0 5 -4 12 -8 14 -9 4 -83 123 -83 135 0 4 -6 15 -13 23 -16 19 -76 145
-110 230 -15 36 -31 73 -36 82 -6 10 -10 25 -10 33 0 8 -4 23 -10 33 -8 15
-47 141 -55 181 -2 9 -9 39 -15 66 -6 28 -14 61 -16 75 -2 14 -9 49 -15 78 -6
29 -8 60 -5 68 3 8 2 14 -2 14 -4 0 -7 19 -7 43 0 23 -2 46 -4 52 -8 16 -10
79 -11 478 0 213 2 392 5 397 3 6 2 10 -4 10 -6 0 -8 6 -5 13 9 23 10 187 1
187 -5 0 -5 5 -2 11 10 16 11 229 1 229 -5 0 -3 6 3 13 6 8 9 16 6 18 -2 3
1107 5 2465 5 l2470 0 -3 -671z"/>
<path d="M1914 4770 c-26 -10 -48 -57 -63 -130 -6 -30 -14 -66 -17 -80 -10
-45 -12 -284 -2 -340 5 -30 11 -67 13 -82 2 -15 9 -46 16 -70 6 -24 12 -47 13
-53 1 -5 4 -14 7 -20 4 -5 12 -28 19 -50 16 -48 89 -195 106 -213 7 -6 16 -21
19 -32 3 -11 10 -20 15 -20 5 0 11 -8 14 -18 9 -26 127 -155 192 -210 67 -56
159 -122 170 -122 5 0 16 -6 22 -12 7 -7 16 -13 20 -13 4 -1 27 -11 52 -24 86
-46 244 -95 340 -107 19 -2 51 -7 70 -10 19 -3 41 -6 48 -5 17 1 36 2 85 2 75
0 196 12 239 25 9 3 25 6 35 8 33 7 137 39 153 47 8 5 47 23 85 41 63 29 161
87 192 113 6 6 26 21 45 35 48 36 183 177 215 224 16 23 30 43 33 46 31 31
143 272 148 320 0 3 6 18 12 34 6 17 13 49 14 72 3 35 0 46 -22 67 -15 14 -49
30 -77 36 -27 6 -57 13 -65 15 -8 3 -177 46 -375 96 -198 51 -367 94 -375 96
-8 2 -44 11 -80 19 -36 9 -72 18 -80 22 -8 3 -26 7 -39 9 -13 2 -31 6 -40 10
-9 4 -25 9 -36 10 -26 5 -170 42 -213 56 -19 5 -44 12 -55 13 -22 4 -58 12
-67 15 -3 1 -9 3 -15 5 -5 1 -12 3 -15 4 -9 4 -45 12 -65 14 -11 2 -25 5 -30
9 -6 3 -28 10 -50 14 -50 10 -42 8 -95 23 -43 13 -54 15 -101 26 -12 2 -36 9
-53 14 -17 6 -42 12 -56 13 -14 2 -30 7 -36 10 -6 4 -26 10 -45 13 -19 3 -43
9 -54 12 -11 4 -27 8 -35 9 -8 1 -33 7 -55 13 -47 12 -53 12 -81 1z"/>
<path d="M11060 4764 c-25 -8 -56 -16 -70 -18 -14 -2 -32 -6 -40 -9 -12 -5
-157 -43 -240 -62 -8 -2 -78 -20 -155 -40 -166 -43 -170 -44 -192 -49 -10 -2
-91 -23 -181 -46 -90 -23 -171 -43 -180 -46 -9 -2 -62 -15 -117 -29 -55 -14
-107 -28 -115 -30 -8 -2 -53 -13 -100 -25 -47 -12 -89 -23 -95 -24 -5 -2 -28
-8 -50 -14 -22 -6 -51 -13 -65 -16 -14 -3 -52 -12 -85 -21 -33 -8 -71 -18 -85
-21 -14 -2 -34 -8 -45 -11 -11 -4 -24 -8 -30 -9 -5 -1 -55 -13 -110 -28 -55
-14 -111 -28 -125 -30 -14 -3 -27 -6 -30 -7 -3 -1 -9 -3 -15 -4 -27 -5 -64
-29 -73 -49 -37 -82 103 -414 243 -576 53 -62 189 -190 202 -190 6 0 13 -4 15
-8 5 -14 119 -86 183 -116 107 -52 165 -73 255 -92 14 -3 32 -7 40 -9 8 -2 15
-4 15 -5 0 -4 55 -9 145 -15 120 -9 104 -9 185 -1 70 7 98 11 145 21 14 3 36
8 50 11 14 3 32 7 40 9 8 2 16 4 18 5 1 2 5 3 10 4 4 1 23 7 42 15 31 12 55
22 145 62 11 5 34 18 50 29 17 11 37 23 45 26 21 10 111 75 136 99 11 11 36
34 55 51 29 26 101 105 127 139 60 80 182 295 167 295 -2 0 4 19 14 43 36 86
58 195 65 334 2 33 6 65 10 71 3 5 3 12 -1 15 -3 4 -7 33 -9 64 -1 32 -3 58
-4 58 -1 0 -3 16 -5 35 -5 43 -13 93 -16 100 -1 3 -3 10 -4 15 -4 29 -28 85
-40 95 -21 18 -74 19 -125 4z"/>
<path d="M6111 3070 c-48 -11 -59 -44 -64 -181 -2 -70 -7 -131 -9 -135 -3 -5
-8 -30 -12 -55 -11 -76 -16 -102 -35 -169 -36 -131 -122 -339 -143 -348 -4 -2
-8 -9 -8 -16 0 -8 -8 -24 -18 -37 -10 -13 -19 -39 -21 -57 -6 -74 83 -111 135
-55 27 29 124 216 144 278 7 22 16 45 20 50 4 6 13 33 20 60 7 28 17 56 23 63
5 6 7 12 3 12 -3 0 -2 10 3 23 5 13 12 40 15 60 3 20 10 57 16 83 18 79 25
154 25 276 0 106 -2 119 -20 132 -26 19 -45 24 -74 16z"/>
<path d="M6918 3067 c-42 -16 -51 -52 -45 -174 4 -59 8 -121 10 -138 2 -16 8
-53 11 -82 4 -28 19 -93 32 -145 14 -51 26 -97 27 -103 26 -99 149 -364 190
-407 38 -40 87 -39 120 4 28 35 25 56 -23 138 -37 65 -90 179 -90 195 0 8 -4
16 -9 19 -5 3 -11 16 -14 28 -3 13 -15 55 -27 93 -11 39 -23 81 -26 95 -2 14
-7 31 -9 38 -5 13 -18 99 -18 120 0 6 -3 12 -6 12 -6 0 -7 20 -10 182 -1 65
-5 81 -23 102 -28 30 -55 37 -90 23z"/>
</g>
</svg>
