<?xml version="1.0" encoding="UTF-8" standalone="no"?>
<svg
   width="327.32571"
   height="238.91959"
   version="1.1"
   id="svg110"
   sodipodi:docname="logo-ico.svg"
   inkscape:version="1.2.2 (732a01da63, 2022-12-09, custom)"
   xmlns:inkscape="http://www.inkscape.org/namespaces/inkscape"
   xmlns:sodipodi="http://sodipodi.sourceforge.net/DTD/sodipodi-0.dtd"
   xmlns="http://www.w3.org/2000/svg"
   xmlns:svg="http://www.w3.org/2000/svg">
  <sodipodi:namedview
     id="namedview112"
     pagecolor="#ffffff"
     bordercolor="#000000"
     borderopacity="0.25"
     inkscape:showpageshadow="2"
     inkscape:pageopacity="0.0"
     inkscape:pagecheckerboard="0"
     inkscape:deskcolor="#d1d1d1"
     showgrid="false"
     inkscape:zoom="0.97843936"
     inkscape:cx="163.52572"
     inkscape:cy="171.19099"
     inkscape:window-width="1538"
     inkscape:window-height="836"
     inkscape:window-x="0"
     inkscape:window-y="0"
     inkscape:window-maximized="1"
     inkscape:current-layer="svg110" />
  <defs
     id="defs24">
    <clipPath
       clipPathUnits="userSpaceOnUse"
       id="a">
      <path
         d="M 0,500 H 500 V 0 H 0 Z"
         id="path18" />
    </clipPath>
    <clipPath
       clipPathUnits="userSpaceOnUse"
       id="b">
      <path
         d="M 0,500 H 500 V 0 H 0 Z"
         id="path21" />
    </clipPath>
  </defs>
  <g
     clip-path="url(#b)"
     transform="matrix(1.33333,0,0,-1.33333,-169.66964,504.27358)"
     id="g100">
    <path
       d="m 0,0 a 22.213,22.213 0 0 1 1.571,5.517 c 1.837,12.204 -6.573,23.581 -18.776,25.418 a 22.046,22.046 0 0 1 -3.836,0.239 c -2.616,9.109 -10.33,16.32 -20.311,17.822 -8.512,1.281 -16.668,-1.892 -22.102,-7.779 a 22.263,22.263 0 0 1 -13.853,7.817 c -12.204,1.837 -23.591,-6.571 -25.426,-18.764 V -46.011 H 0.709 A 30.562,30.562 0 0 1 10.4,-27.88 C 12.034,-17.021 7.77,-6.638 0,0"
       style="fill:#ffffff;fill-opacity:1;fill-rule:nonzero;stroke:none"
       transform="translate(356.466,327.42)"
       id="path32" />
    <path
       d="m 0,0 a 30.56,30.56 0 0 1 9.691,18.131 c 1.634,10.859 -2.63,21.242 -10.4,27.88 a 22.189,22.189 0 0 1 1.571,5.517 c 1.837,12.204 -6.573,23.581 -18.776,25.418 -1.293,0.194 -2.572,0.27 -3.836,0.239 -2.616,9.108 -10.33,16.319 -20.311,17.821 -8.511,1.282 -16.668,-1.891 -22.102,-7.778 a 22.268,22.268 0 0 1 -13.853,7.817 C -90.22,96.882 -101.607,88.474 -103.442,76.28 V 0"
       style="fill:none;stroke:#2068d5;stroke-width:3;stroke-linecap:round;stroke-linejoin:round;stroke-miterlimit:10;stroke-dasharray:none;stroke-opacity:1"
       transform="translate(357.175,281.41)"
       id="path34" />
    <path
       d="m 0,0 c 2.301,5.379 7.269,9.538 12.969,10.855 5.699,1.318 11.989,-0.238 16.416,-4.061"
       style="fill:none;stroke:#2068d5;stroke-width:3;stroke-linecap:round;stroke-linejoin:round;stroke-miterlimit:10;stroke-dasharray:none;stroke-opacity:1"
       transform="translate(254.006,302.67)"
       id="path36" />
    <path
       d="m 0,0 a 20.418,20.418 0 0 0 -4.969,-12.045 20.414,20.414 0 0 0 -11.277,-6.526"
       style="fill:none;stroke:#2068d5;stroke-width:3;stroke-linecap:round;stroke-linejoin:round;stroke-miterlimit:10;stroke-dasharray:none;stroke-opacity:1"
       transform="translate(292.839,368.207)"
       id="path38" />
    <path
       d="m 0,0 c -4.188,-3.502 -9.802,-5.247 -15.237,-4.736 -5.437,0.511 -10.626,3.273 -14.088,7.494"
       style="fill:none;stroke:#2068d5;stroke-width:3;stroke-linecap:round;stroke-linejoin:round;stroke-miterlimit:10;stroke-dasharray:none;stroke-opacity:1"
       transform="translate(356.89,327.556)"
       id="path40" />
    <path
       d="m 0,0 c -0.431,6.254 -3.273,12.311 -7.809,16.638 -4.535,4.327 -10.718,6.883 -16.985,7.021"
       style="fill:none;stroke:#2068d5;stroke-width:3;stroke-linecap:round;stroke-linejoin:round;stroke-miterlimit:10;stroke-dasharray:none;stroke-opacity:1"
       transform="translate(315.177,307.522)"
       id="path42" />
    <path
       d="M 0,0 C -5.612,-2.309 -9.477,-8.322 -9.246,-14.386"
       style="fill:none;stroke:#2068d5;stroke-width:3;stroke-linecap:round;stroke-linejoin:round;stroke-miterlimit:10;stroke-dasharray:none;stroke-opacity:1"
       transform="translate(318.986,359.482)"
       id="path44" />
    <path
       d="m 0,0 a 11.697,11.697 0 0 0 -5.596,-4.593 11.7,11.7 0 0 0 -7.228,-0.385"
       style="fill:none;stroke:#2068d5;stroke-width:3;stroke-linecap:round;stroke-linejoin:round;stroke-miterlimit:10;stroke-dasharray:none;stroke-opacity:1"
       transform="translate(266.773,336.638)"
       id="path46" />
    <path
       d="M 0,0 V 0 C -26.436,0 -47.867,21.431 -47.867,47.866 V 70.859 H 47.867 V 47.866 C 47.867,21.431 26.436,0 0,0 Z"
       style="fill:none;stroke:#ffffff;stroke-width:3;stroke-linecap:round;stroke-linejoin:round;stroke-miterlimit:10;stroke-dasharray:none;stroke-opacity:1"
       transform="translate(183.197,200.516)"
       id="path48" />
    <path
       d="M 0,0 A 61.676,61.676 0 0 1 -37.873,0 V 12.217 H 0 Z"
       style="fill:#ffffff;fill-opacity:1;fill-rule:nonzero;stroke:none"
       transform="translate(268.937,259.157)"
       id="path50" />
    <path
       d="M 0,0 V 0 A 61.676,61.676 0 0 1 -37.873,0 V 12.217 H 0 Z"
       style="fill:none;stroke:#ffffff;stroke-width:3;stroke-linecap:round;stroke-linejoin:round;stroke-miterlimit:10;stroke-dasharray:none;stroke-opacity:1"
       transform="translate(268.937,259.157)"
       id="path52" />
    <path
       d="M 0,0 H 0.001 C 26.437,0 47.867,21.431 47.867,47.866 V 70.859 H -47.866 V 47.866 C -47.866,21.431 -26.436,0 0,0 Z"
       style="fill:none;stroke:#ffffff;stroke-width:3;stroke-linecap:round;stroke-linejoin:round;stroke-miterlimit:10;stroke-dasharray:none;stroke-opacity:1"
       transform="translate(316.803,200.516)"
       id="path54" />
    <path
       d="M 0,0 H -2.972 V 7.331 H 0 A 3.666,3.666 0 0 0 0,0"
       style="fill:#ffffff;fill-opacity:1;fill-rule:nonzero;stroke:none"
       transform="translate(367.642,264.044)"
       id="path56" />
    <path
       d="M 0,0 H -2.972 V 7.331 H 0 A 3.666,3.666 0 0 0 0,0 Z"
       style="fill:none;stroke:#ffffff;stroke-width:3;stroke-linecap:round;stroke-linejoin:round;stroke-miterlimit:10;stroke-dasharray:none;stroke-opacity:1"
       transform="translate(367.642,264.044)"
       id="path58" />
    <path
       d="M 0,0 H 2.972 V 7.331 H 0 A 3.666,3.666 0 0 1 0,0"
       style="fill:#ffffff;fill-opacity:1;fill-rule:nonzero;stroke:none"
       transform="translate(132.358,264.044)"
       id="path60" />
    <path
       d="M 0,0 H 2.972 V 7.331 H 0 A 3.666,3.666 0 0 1 0,0 Z"
       style="fill:none;stroke:#ffffff;stroke-width:3;stroke-linecap:round;stroke-linejoin:round;stroke-miterlimit:10;stroke-dasharray:none;stroke-opacity:1"
       transform="translate(132.358,264.044)"
       id="path62" />
    <path
       d="M 0,0 0.089,6.772 -64.602,12.694 -66.319,0 Z"
       style="fill:#ffffff;fill-opacity:1;fill-rule:nonzero;stroke:none"
       transform="translate(220.05,281.68)"
       id="path64" />
    <path
       d="M 0,0 0.089,6.772 -64.602,12.694 -66.319,0 Z"
       style="fill:none;stroke:#ffffff;stroke-width:3;stroke-linecap:round;stroke-linejoin:round;stroke-miterlimit:10;stroke-dasharray:none;stroke-opacity:1"
       transform="translate(220.05,281.68)"
       id="path66" />
    <path
       d="M 0,0 -0.089,6.772 64.602,12.694 66.319,0 Z"
       style="fill:#2068d5;fill-opacity:1;fill-rule:nonzero;stroke:none"
       transform="translate(279.95,281.68)"
       id="path68" />
    <g
       style="stroke-width:0.99975;stroke-dasharray:none"
       id="g72">
      <path
         d="M 0,0 -0.089,6.772 64.602,12.694 66.319,0 Z"
         style="fill:none;stroke:#2068d5;stroke-width:0.99975;stroke-linecap:round;stroke-linejoin:round;stroke-miterlimit:10;stroke-dasharray:none;stroke-opacity:1"
         transform="translate(279.95,281.68)"
         id="path70" />
    </g>
    <path
       d="M 0,0 C 0,0 0.53,-8.947 -4.731,-17.396"
       style="fill:none;stroke:#ffffff;stroke-width:3;stroke-linecap:round;stroke-linejoin:round;stroke-miterlimit:10;stroke-dasharray:none;stroke-opacity:1"
       transform="translate(242.308,222.189)"
       id="path74" />
    <path
       d="M 0,0 C 0,0 -0.53,-8.949 4.732,-17.398"
       style="fill:none;stroke:#ffffff;stroke-width:3;stroke-linecap:round;stroke-linejoin:round;stroke-miterlimit:10;stroke-dasharray:none;stroke-opacity:1"
       transform="translate(257.692,222.189)"
       id="path76" />
    <path
       d="m 0,0 c -0.081,-0.271 -0.179,-0.531 -0.25,-0.808 -2.902,-11.417 4.001,-23.025 15.418,-25.929 11.418,-2.902 23.027,4.001 25.93,15.418 0.069,0.277 0.108,0.553 0.166,0.829 z"
       style="fill:#3dc681;fill-opacity:1;fill-rule:nonzero;stroke:none"
       transform="translate(163.834,254.16)"
       id="path78" />
    <path
       d="m 0,0 c -0.081,-0.271 -0.179,-0.531 -0.25,-0.808 -2.902,-11.417 4.001,-23.025 15.418,-25.929 11.418,-2.902 23.027,4.001 25.93,15.418 0.069,0.277 0.108,0.553 0.166,0.829 z"
       style="fill:none;stroke:#3dc681;stroke-width:3;stroke-linecap:round;stroke-linejoin:round;stroke-miterlimit:10;stroke-dasharray:none;stroke-opacity:1"
       transform="translate(163.834,254.16)"
       id="path80" />
    <path
       d="m 0,0 c 0.08,-0.271 0.179,-0.531 0.249,-0.808 2.903,-11.417 -4,-23.025 -15.418,-25.929 -11.417,-2.902 -23.026,4.001 -25.929,15.418 -0.07,0.277 -0.107,0.553 -0.167,0.829 z"
       style="fill:#3dc681;fill-opacity:1;fill-rule:nonzero;stroke:none"
       transform="translate(336.166,254.16)"
       id="path82" />
    <path
       d="m 0,0 c 0.08,-0.271 0.179,-0.531 0.249,-0.808 2.903,-11.417 -4,-23.025 -15.418,-25.929 -11.417,-2.902 -23.026,4.001 -25.929,15.418 -0.07,0.277 -0.107,0.553 -0.167,0.829 z"
       style="fill:none;stroke:#3dc681;stroke-width:3;stroke-linecap:round;stroke-linejoin:round;stroke-miterlimit:10;stroke-dasharray:none;stroke-opacity:1"
       transform="translate(336.166,254.16)"
       id="path84" />
    <path
       d="m 0,0 a 30.56,30.56 0 0 0 -9.691,18.131 c -1.635,10.859 2.63,21.242 10.399,27.88 a 22.187,22.187 0 0 0 -1.57,5.517 c -1.837,12.204 6.572,23.581 18.777,25.418 1.293,0.194 2.571,0.27 3.835,0.239 2.616,9.108 10.331,16.319 20.311,17.821 8.512,1.282 16.668,-1.891 22.102,-7.778 a 22.268,22.268 0 0 0 13.853,7.817 C 90.22,96.882 101.607,88.474 103.442,76.28 V 0"
       style="fill:none;stroke:#3dc681;stroke-width:3;stroke-linecap:round;stroke-linejoin:round;stroke-miterlimit:10;stroke-dasharray:none;stroke-opacity:1"
       transform="translate(142.825,281.41)"
       id="path86" />
    <path
       d="m 0,0 c -2.3,5.379 -7.268,9.538 -12.968,10.855 -5.699,1.318 -11.989,-0.238 -16.417,-4.061"
       style="fill:none;stroke:#3dc681;stroke-width:3;stroke-linecap:round;stroke-linejoin:round;stroke-miterlimit:10;stroke-dasharray:none;stroke-opacity:1"
       transform="translate(245.994,302.67)"
       id="path88" />
    <path
       d="m 0,0 a 20.424,20.424 0 0 1 4.968,-12.045 20.42,20.42 0 0 1 11.278,-6.526"
       style="fill:none;stroke:#3dc681;stroke-width:3;stroke-linecap:round;stroke-linejoin:round;stroke-miterlimit:10;stroke-dasharray:none;stroke-opacity:1"
       transform="translate(207.161,368.207)"
       id="path90" />
    <path
       d="m 0,0 c 4.188,-3.502 9.802,-5.247 15.238,-4.736 5.435,0.511 10.625,3.273 14.087,7.494"
       style="fill:none;stroke:#3dc681;stroke-width:3;stroke-linecap:round;stroke-linejoin:round;stroke-miterlimit:10;stroke-dasharray:none;stroke-opacity:1"
       transform="translate(143.11,327.556)"
       id="path92" />
    <path
       d="m 0,0 c 0.431,6.254 3.273,12.311 7.809,16.638 4.535,4.327 10.718,6.883 16.985,7.021"
       style="fill:none;stroke:#3dc681;stroke-width:3;stroke-linecap:round;stroke-linejoin:round;stroke-miterlimit:10;stroke-dasharray:none;stroke-opacity:1"
       transform="translate(184.823,307.522)"
       id="path94" />
    <path
       d="M 0,0 C 5.613,-2.309 9.477,-8.322 9.246,-14.386"
       style="fill:none;stroke:#3dc681;stroke-width:3;stroke-linecap:round;stroke-linejoin:round;stroke-miterlimit:10;stroke-dasharray:none;stroke-opacity:1"
       transform="translate(181.014,359.482)"
       id="path96" />
    <path
       d="m 0,0 a 11.702,11.702 0 0 1 5.596,-4.593 11.703,11.703 0 0 1 7.229,-0.385"
       style="fill:none;stroke:#3dc681;stroke-width:3;stroke-linecap:round;stroke-linejoin:round;stroke-miterlimit:10;stroke-dasharray:none;stroke-opacity:1"
       transform="translate(233.226,336.638)"
       id="path98" />
  </g>
</svg>
