<svg width="517.658" height="486.489" xmlns="http://www.w3.org/2000/svg">
    <defs>
        <clipPath clipPathUnits="userSpaceOnUse" id="a">
            <path d="M0 500h500V0H0Z"/>
        </clipPath>
        <clipPath clipPathUnits="userSpaceOnUse" id="b">
            <path d="M0 500h500V0H0Z"/>
        </clipPath>
    </defs>
    <g clip-path="url(#a)" transform="matrix(1.33333 0 0 -1.33333 -74.763 576.578)">
        <path d="m0 0-7.091-7.796c-26.92-29.596-69.155-35.809-99.846-35.809h-.004c-25.15 0-44.221 4.172-44.403 4.212l-11.512 2.578-.166-11.797c-.821-58.496 6.927-111.393 23.027-157.221 12.979-36.941 31.379-69.397 54.69-96.468 40.023-46.476 80.46-60.886 82.162-61.476L0-364.867l3.143 1.09c1.702.59 42.138 15 82.163 61.476 23.311 27.071 41.711 59.527 54.689 96.468 16.1 45.828 23.848 98.725 23.027 157.221l-.166 11.795-11.511-2.576c-.189-.042-19.118-4.212-44.409-4.212h-.007c-30.688 0-72.918 6.214-99.838 35.809zm0-2.972 5.611-6.17c27.413-30.137 70.228-36.463 101.325-36.463 25.509 0 44.655 4.218 44.845 4.261l9.111 2.038.13-9.335c.818-58.258-6.891-110.922-22.914-156.529-12.895-36.706-31.17-68.946-54.318-95.825-39.675-46.071-79.622-60.309-81.303-60.893L0-362.75l-2.487.862c-1.681.584-41.628 14.822-81.302 60.893-23.148 26.88-41.423 59.12-54.318 95.825-16.023 45.605-23.733 98.269-22.915 156.529l.131 9.336 9.116-2.041c.192-.043 19.568-4.259 44.839-4.259 31.094 0 73.913 6.327 101.325 36.463L0-2.972" style="fill:#221538;fill-opacity:1;fill-rule:nonzero;stroke:none" transform="translate(250 432.434)"/>
        <path d="M0 0s-101.41-22.698-153.438 34.501C-205.466-22.698-306.876 0-306.876 0c-3.527-251.498 153.438-305.974 153.438-305.974S3.526-251.498 0 0" style="fill:#221538;fill-opacity:1;fill-rule:nonzero;stroke:none" transform="translate(403.438 383.687)"/>
    </g>
    <g clip-path="url(#b)" transform="matrix(1.33333 0 0 -1.33333 -74.763 576.578)">
        <path d="M0 0a22.213 22.213 0 0 1 1.571 5.517c1.837 12.204-6.573 23.581-18.776 25.418a22.046 22.046 0 0 1-3.836.239c-2.616 9.109-10.33 16.32-20.311 17.822-8.512 1.281-16.668-1.892-22.102-7.779a22.263 22.263 0 0 1-13.853 7.817c-12.204 1.837-23.591-6.571-25.426-18.764v-76.281H.709A30.562 30.562 0 0 1 10.4-27.88C12.034-17.021 7.77-6.638 0 0" style="fill:#fff;fill-opacity:1;fill-rule:nonzero;stroke:none" transform="translate(356.466 327.42)"/>
        <path d="M0 0a30.56 30.56 0 0 1 9.691 18.131c1.634 10.859-2.63 21.242-10.4 27.88a22.189 22.189 0 0 1 1.571 5.517c1.837 12.204-6.573 23.581-18.776 25.418-1.293.194-2.572.27-3.836.239-2.616 9.108-10.33 16.319-20.311 17.821-8.511 1.282-16.668-1.891-22.102-7.778a22.268 22.268 0 0 1-13.853 7.817c-12.204 1.837-23.591-6.571-25.426-18.765V0" style="fill:none;stroke:#2068d5;stroke-width:3;stroke-linecap:round;stroke-linejoin:round;stroke-miterlimit:10;stroke-dasharray:none;stroke-opacity:1" transform="translate(357.175 281.41)"/>
        <path d="M0 0c2.301 5.379 7.269 9.538 12.969 10.855 5.699 1.318 11.989-.238 16.416-4.061" style="fill:none;stroke:#2068d5;stroke-width:3;stroke-linecap:round;stroke-linejoin:round;stroke-miterlimit:10;stroke-dasharray:none;stroke-opacity:1" transform="translate(254.006 302.67)"/>
        <path d="M0 0a20.418 20.418 0 0 0-4.969-12.045 20.414 20.414 0 0 0-11.277-6.526" style="fill:none;stroke:#2068d5;stroke-width:3;stroke-linecap:round;stroke-linejoin:round;stroke-miterlimit:10;stroke-dasharray:none;stroke-opacity:1" transform="translate(292.839 368.207)"/>
        <path d="M0 0c-4.188-3.502-9.802-5.247-15.237-4.736-5.437.511-10.626 3.273-14.088 7.494" style="fill:none;stroke:#2068d5;stroke-width:3;stroke-linecap:round;stroke-linejoin:round;stroke-miterlimit:10;stroke-dasharray:none;stroke-opacity:1" transform="translate(356.89 327.556)"/>
        <path d="M0 0c-.431 6.254-3.273 12.311-7.809 16.638-4.535 4.327-10.718 6.883-16.985 7.021" style="fill:none;stroke:#2068d5;stroke-width:3;stroke-linecap:round;stroke-linejoin:round;stroke-miterlimit:10;stroke-dasharray:none;stroke-opacity:1" transform="translate(315.177 307.522)"/>
        <path d="M0 0c-5.612-2.309-9.477-8.322-9.246-14.386" style="fill:none;stroke:#2068d5;stroke-width:3;stroke-linecap:round;stroke-linejoin:round;stroke-miterlimit:10;stroke-dasharray:none;stroke-opacity:1" transform="translate(318.986 359.482)"/>
        <path d="M0 0a11.697 11.697 0 0 0-5.596-4.593 11.7 11.7 0 0 0-7.228-.385" style="fill:none;stroke:#2068d5;stroke-width:3;stroke-linecap:round;stroke-linejoin:round;stroke-miterlimit:10;stroke-dasharray:none;stroke-opacity:1" transform="translate(266.773 336.638)"/>
        <path d="M0 0v0c-26.436 0-47.867 21.431-47.867 47.866v22.993h95.734V47.866C47.867 21.431 26.436 0 0 0Z" style="fill:none;stroke:#fff;stroke-width:3;stroke-linecap:round;stroke-linejoin:round;stroke-miterlimit:10;stroke-dasharray:none;stroke-opacity:1" transform="translate(183.197 200.516)"/>
        <path d="M0 0a61.676 61.676 0 0 1-37.873 0v12.217H0Z" style="fill:#fff;fill-opacity:1;fill-rule:nonzero;stroke:none" transform="translate(268.937 259.157)"/>
        <path d="M0 0v0a61.676 61.676 0 0 1-37.873 0v12.217H0Z" style="fill:none;stroke:#fff;stroke-width:3;stroke-linecap:round;stroke-linejoin:round;stroke-miterlimit:10;stroke-dasharray:none;stroke-opacity:1" transform="translate(268.937 259.157)"/>
        <path d="M0 0h.001c26.436 0 47.866 21.431 47.866 47.866v22.993h-95.733V47.866C-47.866 21.431-26.436 0 0 0Z" style="fill:none;stroke:#fff;stroke-width:3;stroke-linecap:round;stroke-linejoin:round;stroke-miterlimit:10;stroke-dasharray:none;stroke-opacity:1" transform="translate(316.803 200.516)"/>
        <path d="M0 0h-2.972v7.331H0A3.666 3.666 0 0 0 0 0" style="fill:#fff;fill-opacity:1;fill-rule:nonzero;stroke:none" transform="translate(367.642 264.044)"/>
        <path d="M0 0h-2.972v7.331H0A3.666 3.666 0 0 0 0 0Z" style="fill:none;stroke:#fff;stroke-width:3;stroke-linecap:round;stroke-linejoin:round;stroke-miterlimit:10;stroke-dasharray:none;stroke-opacity:1" transform="translate(367.642 264.044)"/>
        <path d="M0 0h2.972v7.331H0A3.666 3.666 0 0 1 0 0" style="fill:#fff;fill-opacity:1;fill-rule:nonzero;stroke:none" transform="translate(132.358 264.044)"/>
        <path d="M0 0h2.972v7.331H0A3.666 3.666 0 0 1 0 0Z" style="fill:none;stroke:#fff;stroke-width:3;stroke-linecap:round;stroke-linejoin:round;stroke-miterlimit:10;stroke-dasharray:none;stroke-opacity:1" transform="translate(132.358 264.044)"/>
        <path d="m0 0 .089 6.772-64.691 5.922L-66.319 0Z" style="fill:#fff;fill-opacity:1;fill-rule:nonzero;stroke:none" transform="translate(220.05 281.68)"/>
        <path d="m0 0 .089 6.772-64.691 5.922L-66.319 0Z" style="fill:none;stroke:#fff;stroke-width:3;stroke-linecap:round;stroke-linejoin:round;stroke-miterlimit:10;stroke-dasharray:none;stroke-opacity:1" transform="translate(220.05 281.68)"/>
        <path d="m0 0-.089 6.772 64.691 5.922L66.319 0Z" style="fill:#2068d5;fill-opacity:1;fill-rule:nonzero;stroke:none" transform="translate(279.95 281.68)"/>
        <g style="stroke-width:.99975;stroke-dasharray:none">
            <path d="m0 0-.089 6.772 64.691 5.922L66.319 0Z" style="fill:none;stroke:#2068d5;stroke-width:.99975;stroke-linecap:round;stroke-linejoin:round;stroke-miterlimit:10;stroke-dasharray:none;stroke-opacity:1" transform="translate(279.95 281.68)"/>
        </g>
        <path d="M0 0s.53-8.947-4.731-17.396" style="fill:none;stroke:#fff;stroke-width:3;stroke-linecap:round;stroke-linejoin:round;stroke-miterlimit:10;stroke-dasharray:none;stroke-opacity:1" transform="translate(242.308 222.189)"/>
        <path d="M0 0s-.53-8.949 4.732-17.398" style="fill:none;stroke:#fff;stroke-width:3;stroke-linecap:round;stroke-linejoin:round;stroke-miterlimit:10;stroke-dasharray:none;stroke-opacity:1" transform="translate(257.692 222.189)"/>
        <path d="M0 0c-.081-.271-.179-.531-.25-.808-2.902-11.417 4.001-23.025 15.418-25.929 11.418-2.902 23.027 4.001 25.93 15.418.069.277.108.553.166.829z" style="fill:#3dc681;fill-opacity:1;fill-rule:nonzero;stroke:none" transform="translate(163.834 254.16)"/>
        <path d="M0 0c-.081-.271-.179-.531-.25-.808-2.902-11.417 4.001-23.025 15.418-25.929 11.418-2.902 23.027 4.001 25.93 15.418.069.277.108.553.166.829z" style="fill:none;stroke:#3dc681;stroke-width:3;stroke-linecap:round;stroke-linejoin:round;stroke-miterlimit:10;stroke-dasharray:none;stroke-opacity:1" transform="translate(163.834 254.16)"/>
        <path d="M0 0c.08-.271.179-.531.249-.808 2.903-11.417-4-23.025-15.418-25.929-11.417-2.902-23.026 4.001-25.929 15.418-.07.277-.107.553-.167.829z" style="fill:#3dc681;fill-opacity:1;fill-rule:nonzero;stroke:none" transform="translate(336.166 254.16)"/>
        <path d="M0 0c.08-.271.179-.531.249-.808 2.903-11.417-4-23.025-15.418-25.929-11.417-2.902-23.026 4.001-25.929 15.418-.07.277-.107.553-.167.829z" style="fill:none;stroke:#3dc681;stroke-width:3;stroke-linecap:round;stroke-linejoin:round;stroke-miterlimit:10;stroke-dasharray:none;stroke-opacity:1" transform="translate(336.166 254.16)"/>
        <path d="M0 0a30.56 30.56 0 0 0-9.691 18.131C-11.326 28.99-7.061 39.373.708 46.011a22.187 22.187 0 0 0-1.57 5.517C-2.699 63.732 5.71 75.109 17.915 76.946c1.293.194 2.571.27 3.835.239 2.616 9.108 10.331 16.319 20.311 17.821 8.512 1.282 16.668-1.891 22.102-7.778a22.268 22.268 0 0 0 13.853 7.817c12.204 1.837 23.591-6.571 25.426-18.765V0" style="fill:none;stroke:#3dc681;stroke-width:3;stroke-linecap:round;stroke-linejoin:round;stroke-miterlimit:10;stroke-dasharray:none;stroke-opacity:1" transform="translate(142.825 281.41)"/>
        <path d="M0 0c-2.3 5.379-7.268 9.538-12.968 10.855-5.699 1.318-11.989-.238-16.417-4.061" style="fill:none;stroke:#3dc681;stroke-width:3;stroke-linecap:round;stroke-linejoin:round;stroke-miterlimit:10;stroke-dasharray:none;stroke-opacity:1" transform="translate(245.994 302.67)"/>
        <path d="M0 0a20.424 20.424 0 0 1 4.968-12.045 20.42 20.42 0 0 1 11.278-6.526" style="fill:none;stroke:#3dc681;stroke-width:3;stroke-linecap:round;stroke-linejoin:round;stroke-miterlimit:10;stroke-dasharray:none;stroke-opacity:1" transform="translate(207.161 368.207)"/>
        <path d="M0 0c4.188-3.502 9.802-5.247 15.238-4.736 5.435.511 10.625 3.273 14.087 7.494" style="fill:none;stroke:#3dc681;stroke-width:3;stroke-linecap:round;stroke-linejoin:round;stroke-miterlimit:10;stroke-dasharray:none;stroke-opacity:1" transform="translate(143.11 327.556)"/>
        <path d="M0 0c.431 6.254 3.273 12.311 7.809 16.638 4.535 4.327 10.718 6.883 16.985 7.021" style="fill:none;stroke:#3dc681;stroke-width:3;stroke-linecap:round;stroke-linejoin:round;stroke-miterlimit:10;stroke-dasharray:none;stroke-opacity:1" transform="translate(184.823 307.522)"/>
        <path d="M0 0c5.613-2.309 9.477-8.322 9.246-14.386" style="fill:none;stroke:#3dc681;stroke-width:3;stroke-linecap:round;stroke-linejoin:round;stroke-miterlimit:10;stroke-dasharray:none;stroke-opacity:1" transform="translate(181.014 359.482)"/>
        <path d="M0 0a11.702 11.702 0 0 1 5.596-4.593 11.703 11.703 0 0 1 7.229-.385" style="fill:none;stroke:#3dc681;stroke-width:3;stroke-linecap:round;stroke-linejoin:round;stroke-miterlimit:10;stroke-dasharray:none;stroke-opacity:1" transform="translate(233.226 336.638)"/>
    </g>
    <path style="font-style:normal;font-variant:normal;font-weight:400;font-stretch:normal;font-size:10.1282px;font-family:'Shadows Into Light';-inkscape-font-specification:'Shadows Into Light, ';fill:#fff;stroke:#fff;stroke-width:2.4008;stroke-opacity:1" d="m235.92 118.96-3.963-3.84.385-.289 4.227 3.723zm-61.933-5.282-7.13-17.314h.864l2.46 6.1h7.616l2.434-6.1h.89zm9.51 0V96.364h.791v15.178l12.802-15.681v17.313h-.795v-15.25Zm94.878 0-7.13-17.314h.861l2.462 6.1h7.617l2.435-6.1h.889zm32.515 0V96.364h.792v15.178l12.799-15.681v17.313h-.792v-15.25Zm44.328 0-7.13-17.314h.864l2.463 6.1h7.613l2.435-6.1h.889zm-109.935-.288c-.816 0-1.544-.16-2.185-.48a3.675 3.675 0 0 1-1.51-1.368c-.353-.576-.532-1.258-.532-2.042 0-.689.13-1.282.386-1.778.256-.497.6-.928 1.031-1.296a9.147 9.147 0 0 1 1.466-.938 22.676 22.676 0 0 1 1.584-.694c.64-.24 1.259-.529 1.85-.865a4.467 4.467 0 0 0 1.467-1.32c.384-.544.576-1.242.576-2.09 0-1.041-.338-1.907-1.01-2.595-.673-.672-1.618-1.007-2.835-1.007-.928 0-1.694.192-2.302.576a4.413 4.413 0 0 0-1.466 1.511 9.073 9.073 0 0 0-.816 2.042l-.65-.385c.192-.8.506-1.545.938-2.234.432-.688 1.001-1.24 1.705-1.656.705-.416 1.558-.622 2.567-.622.704 0 1.348.11 1.924.334.576.224 1.062.529 1.462.913.417.4.738.873.962 1.417.224.544.337 1.138.337 1.778 0 .72-.13 1.344-.385 1.872-.24.529-.562.976-.962 1.344-.4.369-.848.682-1.344.938-.48.256-.961.478-1.442.67-.848.305-1.593.643-2.233 1.011-.624.368-1.118.8-1.486 1.296-.353.512-.528 1.13-.528 1.85 0 .93.301 1.665.91 2.21.624.544 1.456.816 2.497.816.784 0 1.44-.146 1.969-.434a3.849 3.849 0 0 0 1.275-1.08c.336-.433.583-.872.743-1.32l.722.385c-.192.497-.489.99-.889 1.487a4.98 4.98 0 0 1-1.538 1.25c-.625.336-1.377.504-2.258.504zm90.485 0c-1.168 0-2.247-.217-3.24-.65a7.306 7.306 0 0 1-2.546-1.799 8.193 8.193 0 0 1-1.68-2.737c-.401-1.04-.602-2.186-.602-3.435 0-1.248.2-2.402.601-3.459.4-1.04.96-1.952 1.681-2.737a7.758 7.758 0 0 1 2.546-1.802c.993-.416 2.072-.622 3.24-.622 1.233 0 2.266.16 3.098.48a7.953 7.953 0 0 1 2.307 1.44v1.057a8.023 8.023 0 0 0-1.466-1.202 6.277 6.277 0 0 0-1.778-.719c-.64-.16-1.36-.24-2.16-.24-1.377 0-2.61.335-3.7 1.008-1.088.672-1.954 1.592-2.594 2.76-.624 1.185-.934 2.532-.934 4.036 0 1.537.31 2.888.934 4.057.64 1.169 1.506 2.084 2.594 2.74 1.09.673 2.323 1.008 3.7 1.008a8.7 8.7 0 0 0 2.111-.24 6.64 6.64 0 0 0 1.803-.723c.56-.32 1.057-.71 1.49-1.173v1.031a7.546 7.546 0 0 1-2.307 1.417c-.832.336-1.865.504-3.098.504zm-198.475-.216v-16.81h3.387c1.088 0 2.041.168 2.858.504.816.352 1.456.88 1.92 1.584.465.72.699 1.635.699 2.74 0 .769-.163 1.438-.483 2.015a4.165 4.165 0 0 1-1.271 1.417 5.423 5.423 0 0 1-1.73.84c-.24.074-.476.125-.712.17a5.87 5.87 0 0 1 1.025.264c.704.272 1.256.678 1.656 1.223.417.56.626 1.266.626 2.115 0 .848-.201 1.56-.601 2.136-.385.576-.937 1.015-1.657 1.32-.704.32-1.562.482-2.57.482zm9.798 0 5.526-10.183v-6.627h.767v6.651l5.69 10.16h-.886l-5.214-9.392-4.994 9.391zm54.177 0v-16.81h4.202c1.634 0 3.056.352 4.273 1.056a7.3 7.3 0 0 1 2.858 2.932c.672 1.264 1.01 2.736 1.01 4.417 0 1.681-.338 3.145-1.01 4.394a7.261 7.261 0 0 1-2.858 2.956c-1.217.704-2.64 1.055-4.272 1.055H201.675zm15.56 0v-16.81h.792v7.301h2.295l5.078-7.3h.959l-5.203 7.356c.827.057 1.6.192 2.275.472.848.368 1.521.904 2.018 1.608.512.72.767 1.594.767 2.619 0 1.04-.255 1.91-.767 2.615-.497.704-1.17 1.235-2.018 1.587-.849.368-1.819.552-2.907.552h-2.928zm11.888 0v-16.81h8.596v.744h-7.804v8.165h7.325v.743h-7.325v6.412h7.804v.746h-8.238zm30.088 0 7.134-17.313 7.13 17.313h-.913l-6.217-15.441-6.245 15.441zm29.08 0v-16.81h7.975v.744h-7.207v16.066zm10.472 0v-16.81h8.596v.744h-7.804v8.165h7.325v.743h-7.325v6.412h7.804v.746h-8.238zm46.682 0v-16.81h.768v16.81zm-206.974-.722h2.376c1.265 0 2.251-.288 2.956-.865.72-.56 1.08-1.36 1.08-2.4 0-.752-.184-1.367-.553-1.847-.368-.465-.865-.811-1.49-1.035a6.124 6.124 0 0 0-1.993-.313h-2.376zm79.556 0h2.497c.96 0 1.81-.15 2.546-.455.736-.288 1.313-.736 1.73-1.344.415-.592.624-1.337.624-2.233 0-.897-.209-1.65-.625-2.258-.416-.592-.993-1.04-1.73-1.344-.736-.304-1.585-.458-2.545-.458h-2.497zm-15.56-.07h3.41c1.121 0 2.138-.179 3.05-.53.913-.353 1.682-.864 2.306-1.536.64-.672 1.126-1.48 1.462-2.424.353-.929.528-1.97.528-3.123 0-1.152-.175-2.202-.528-3.146a6.77 6.77 0 0 0-1.462-2.4 6.087 6.087 0 0 0-2.306-1.539c-.912-.352-1.929-.528-3.05-.528h-3.41zm-28.073-.53 3.525-8.67h-7.043zm104.388 0 3.525-8.67h-7.043zm76.843 0 3.525-8.67H351.7zm-217.154-6.555h2.616c.576 0 1.144-.096 1.705-.288a4.718 4.718 0 0 0 1.514-.792 3.796 3.796 0 0 0 1.08-1.274c.272-.497.407-1.065.407-1.706 0-.944-.198-1.727-.598-2.351-.384-.608-.931-1.064-1.636-1.368-.704-.289-1.528-.435-2.472-.435h-2.616z" transform="matrix(1.33333 0 0 -1.33333 -74.763 576.578)"/>
    <path style="font-size:71.8463px;font-family:'Racing Sans One';-inkscape-font-specification:'Racing Sans One';display:inline;fill:#fff;stroke:#fff;stroke-width:7.18284;stroke-opacity:1" d="m222.498-186.806.139 56.06h3.158v-21.469c.515.094 1.333.397 2.455.911a87.636 87.636 0 0 1 3.86 1.825c1.45.702 2.97 1.45 4.56 2.245l4.49 2.245a109.5 109.5 0 0 1 3.86 1.824c1.169.514 2.01.866 2.525 1.053.14.047.468.21.983.49.561.235 1.122.516 1.683.843.608.328 1.17.632 1.685.913.56.234.888.373.981.42a.54.54 0 0 1 .211.07h.35c.234 0 .468-.094.702-.28.28-.235.538-.492.772-.773a2.48 2.48 0 0 0 .492-.91c.14-.328.21-.586.21-.773 0-.187-.164-.374-.491-.56a34.54 34.54 0 0 1-.913-.632 32.674 32.674 0 0 1-1.333-.633c-.561-.187-1.497-.584-2.807-1.192-1.31-.655-2.782-1.38-4.419-2.176a704.58 704.58 0 0 1-5.263-2.736 145.73 145.73 0 0 0-5.332-2.736 151.435 151.435 0 0 0-4.7-2.385c-1.404-.749-2.48-1.287-3.228-1.614.842-.89 2.104-1.894 3.788-3.016a242.66 242.66 0 0 1 5.543-3.58c2.058-1.309 4.14-2.642 6.245-3.998 2.151-1.357 4.093-2.713 5.824-4.07 1.73-1.403 3.11-2.76 4.14-4.069 1.075-1.31 1.565-2.526 1.472-3.649-.094-1.17-.912-2.221-2.455-3.156-1.544-.983-4.046-1.826-7.508-2.527-2.245-.234-4.232-.117-5.963.351-1.73.468-3.299 1.052-4.702 1.754-1.403.701-2.619 1.403-3.648 2.105-1.029.655-1.94 1.075-2.736 1.262v-6.174c0-.468-.234-.725-.702-.772-.467-.093-.819-.14-1.053-.14-.047 0-.233-.023-.56-.07a5.543 5.543 0 0 0-.912-.07 39.847 39.847 0 0 1-.913-.14 5.429 5.429 0 0 0-.49-.07zm64.339 1.122c-.234 0-.376.047-.422.141-.234 1.17-.608 2.667-1.122 4.491a87.366 87.366 0 0 1-1.755 5.893 249.612 249.612 0 0 1-2.105 6.315 153.319 153.319 0 0 1-2.174 5.893 505.915 505.915 0 0 0-1.685 4.63c-.467 1.264-.794 2.06-.981 2.387h-.913c-1.45-1.076-2.924-2.432-4.42-4.07a124.86 124.86 0 0 1-4.42-5.261 436.759 436.759 0 0 1-4.28-5.473 89.95 89.95 0 0 0-3.859-4.982c-.467 0-.912.093-1.333.28-.42.187-.631.562-.631 1.124v.28c0 .093.022.164.069.21.842 2.105 1.942 4.187 3.299 6.245a74.398 74.398 0 0 0 4.419 5.893 183.452 183.452 0 0 0 4.841 5.473 310.794 310.794 0 0 1 4.492 4.841 14.382 14.382 0 0 1-.493 5.123 52.468 52.468 0 0 1-1.542 4.84 101.588 101.588 0 0 0-1.685 4.912 15.85 15.85 0 0 0-.772 4.91c0 1.217.608 1.826 1.824 1.826.094 0 .235-.024.422-.07h.42c1.544-4.818 2.831-8.771 3.86-11.858a326.44 326.44 0 0 1 2.596-7.648 542.665 542.665 0 0 1 1.683-4.771c.421-1.216.82-2.315 1.194-3.298.42-.982.818-2.01 1.192-3.086a118.24 118.24 0 0 0 1.333-4.35c.562-1.825 1.24-4.164 2.035-7.017.842-2.854 1.894-6.502 3.157-10.946.093-.654-.094-1.286-.561-1.894-.421-.655-.982-.983-1.683-.983zm-223.048.983c-.514 0-.935.117-1.263.35-.327.188-.467.702-.42 1.544a89.754 89.754 0 0 1 1.964 13.121c.328 4.35.515 8.7.561 13.05.047 4.35.07 8.7.07 13.05.048 4.304.281 8.536.702 12.7.421.607.936.982 1.544 1.123.655.187 1.24.187 1.754 0 .561-.187.982-.468 1.262-.842.328-.375.399-.772.211-1.193 0-3.32-.186-6.922-.56-10.805-.375-3.929-.796-7.905-1.263-11.928-.421-4.022-.82-7.999-1.194-11.928-.374-3.93-.561-7.53-.561-10.805.935 0 1.614.328 2.034.983.468.608.983 1.426 1.544 2.455l1.544 3.088a113.094 113.094 0 0 1 2.385 4.771c.889 1.73 1.825 3.579 2.807 5.543l2.806 5.612a137.36 137.36 0 0 1 2.316 4.841c.702 1.404 1.239 2.433 1.613 3.088.515 1.45 1.1 2.128 1.755 2.035.655-.14 1.357-.772 2.105-1.894.748-1.123 1.496-2.644 2.244-4.562.749-1.964 1.497-4.07 2.246-6.315a122.87 122.87 0 0 0 2.034-6.735 233.336 233.336 0 0 1 1.826-6.104 328.635 328.635 0 0 0 1.333-4.42c.374-1.169.653-1.707.84-1.614l4.07 46.729 4.841-1.894c-1.123-3.93-2.011-8.07-2.666-12.42a304.196 304.196 0 0 1-1.544-13.12 448.867 448.867 0 0 1-1.052-13.12c-.234-4.35-.562-8.514-.983-12.49-.093-.654-.233-1.122-.42-1.403-.14-.28-.421-.42-.842-.42s-.889.092-1.404.28c-.514.187-.817.398-.91.632-1.685 5.239-3.112 9.682-4.281 13.33a848.475 848.475 0 0 1-2.947 9.052 612.118 612.118 0 0 1-1.894 5.613c-.421 1.356-.771 2.361-1.052 3.016-.234.655-.422 1.053-.563 1.194a.671.671 0 0 1-.49.21c-.374-.562-.913-1.474-1.615-2.737a299.835 299.835 0 0 1-2.314-4.42 578.524 578.524 0 0 0-2.666-5.263 293.887 293.887 0 0 0-2.597-5.332l-2.244-4.56c-.655-1.31-1.17-2.269-1.544-2.877a139.593 139.593 0 0 0-1.614-2.666 14.02 14.02 0 0 0-1.965-2.666 9.483 9.483 0 0 0-2.525-2.034c-.889-.562-1.895-.843-3.018-.843zm83.143 0c-.514 0-.935.117-1.262.35-.328.188-.47.702-.422 1.544a89.758 89.758 0 0 1 1.966 13.121c.327 4.35.514 8.7.56 13.05.047 4.35.07 8.7.07 13.05.048 4.304.282 8.536.703 12.7.42.607.934.982 1.542 1.123.655.187 1.24.187 1.755 0 .561-.187.982-.468 1.263-.842.327-.375.398-.772.21-1.193 0-3.32-.188-6.922-.562-10.805-.374-3.929-.795-7.905-1.263-11.928-.42-4.022-.818-7.999-1.192-11.928-.374-3.93-.561-7.53-.561-10.805.935 0 1.614.328 2.035.983.467.608.982 1.426 1.543 2.455l1.543 3.088a113.01 113.01 0 0 1 2.386 4.771 579.67 579.67 0 0 1 2.807 5.543l2.806 5.612c.89 1.777 1.66 3.391 2.315 4.841.702 1.404 1.24 2.433 1.614 3.088.515 1.45 1.099 2.128 1.754 2.035.654-.14 1.356-.772 2.105-1.894.748-1.123 1.497-2.644 2.245-4.562.749-1.964 1.497-4.07 2.246-6.315.748-2.245 1.426-4.49 2.034-6.735a233.725 233.725 0 0 1 1.824-6.104 328.69 328.69 0 0 0 1.333-4.42c.374-1.169.655-1.707.843-1.614l4.069 46.729 4.841-1.894c-1.122-3.93-2.011-8.07-2.666-12.42a304.18 304.18 0 0 1-1.544-13.12 448.868 448.868 0 0 1-1.052-13.12c-.233-4.35-.561-8.514-.982-12.49-.094-.654-.234-1.122-.42-1.403-.141-.28-.422-.42-.843-.42s-.889.092-1.403.28c-.515.187-.82.398-.913.632-1.684 5.239-3.11 9.682-4.279 13.33a848.513 848.513 0 0 1-2.947 9.052 612.203 612.203 0 0 1-1.894 5.613c-.421 1.356-.773 2.361-1.053 3.016-.234.655-.421 1.053-.561 1.194a.671.671 0 0 1-.491.21c-.374-.562-.913-1.474-1.614-2.737a298.868 298.868 0 0 1-2.316-4.42 578.528 578.528 0 0 0-2.666-5.263 294.1 294.1 0 0 0-2.596-5.332l-2.246-4.56c-.655-1.31-1.168-2.269-1.542-2.877a139.568 139.568 0 0 0-1.614-2.666 14.02 14.02 0 0 0-1.965-2.666 9.483 9.483 0 0 0-2.525-2.034c-.889-.562-1.895-.843-3.018-.843zm-9.262 2.596c-1.637 0-3.39.257-5.262.772a45.08 45.08 0 0 0-5.543 1.824 61.214 61.214 0 0 0-5.402 2.386c-1.73.842-3.297 1.636-4.7 2.385 0-.28-.048-.747-.141-1.402a9.645 9.645 0 0 0-.35-1.966 6.323 6.323 0 0 0-.843-1.894c-.327-.561-.771-.911-1.333-1.052-.327-.047-.655.023-.983.21-.327.187-.63.444-.91.772-.235.28-.445.585-.632.912-.14.328-.211.609-.211.843 0 .093.047.256.14.49.094.234.187.515.28.843l.282.842c.14.28.21.467.21.56.562 3.743.983 7.437 1.263 11.085.28 3.602.468 7.205.561 10.807.094 3.601.117 7.226.07 10.875-.046 3.648-.07 7.367-.07 11.156.468.468.889.747 1.263.84.374.094.866.141 1.474.141 1.543-.374 3.367-1.146 5.472-2.316a111.58 111.58 0 0 0 6.525-3.999c2.198-1.497 4.35-2.97 6.455-4.42 2.152-1.496 4.047-2.736 5.684-3.718.655-.328.981-.772.981-1.333 0-.562-.187-.935-.56-1.122a2.784 2.784 0 0 0-1.263-.282c-.796.14-1.802.585-3.018 1.333-1.17.749-2.455 1.592-3.858 2.527-1.357.936-2.76 1.94-4.21 3.016a57.883 57.883 0 0 1-4.21 2.737c-1.357.795-2.595 1.426-3.718 1.894-1.076.42-1.919.515-2.527.28v-13.54c0-.608.42-1.263 1.263-1.964.842-.702 1.895-1.404 3.158-2.105 1.263-.702 2.62-1.427 4.07-2.176a48.372 48.372 0 0 0 4.139-2.316c1.263-.795 2.315-1.59 3.157-2.384.842-.796 1.262-1.615 1.262-2.457-.374-.515-.771-.748-1.192-.702-.374 0-.748.118-1.122.352a3.785 3.785 0 0 0-.913.772l-.35.42-14.453 8.069a120.48 120.48 0 0 1-.211-2.596c-.047-1.31-.118-2.666-.211-4.07a431.65 431.65 0 0 0-.28-4.069c-.047-1.263-.094-2.151-.14-2.666v-2.736l19.715-9.894c.467-.234.772-.513.912-.84.187-.328.28-.703.28-1.124zm105.524 1.014c.34.003.668.016.983.04 2.292.42 3.788 1.004 4.49 1.753.749.748.937 1.59.563 2.525-.328.889-1.124 1.871-2.387 2.947-1.216 1.076-2.643 2.175-4.28 3.298a78.225 78.225 0 0 1-5.262 3.158 219.587 219.587 0 0 1-9.191 4.912c-1.123.56-1.778.958-1.965 1.192 0-1.03.024-2.152.07-3.368l.282-3.649c.14-1.216.256-2.385.35-3.508.093-1.123.188-2.105.281-2.947.842-1.076 1.964-2.01 3.368-2.805a24.635 24.635 0 0 1 4.49-2.105 27.071 27.071 0 0 1 4.84-1.194 22.582 22.582 0 0 1 3.368-.25zm-34.787 2.91c-1.868-.008-3.696.812-5.485 2.461-2.34 2.199-4.397 5.87-6.175 11.016-1.777 5.098-2.947 11.717-3.508 19.856 0 1.356.141 2.9.422 4.63.327 1.684.84 3.321 1.542 4.912.702 1.543 1.638 2.853 2.807 3.929 1.17 1.075 2.62 1.614 4.35 1.614 2.433-.328 4.585-1.263 6.456-2.807 1.871-1.59 3.483-3.532 4.84-5.824 1.356-2.292 2.41-4.864 3.158-7.717a50.017 50.017 0 0 0 1.614-8.701c.328-2.994.373-5.94.14-8.84-.188-2.9-.632-5.519-1.334-7.858-2.058-3.555-4.373-5.683-6.946-6.385a6.706 6.706 0 0 0-1.88-.286zm.516 4.653c1.36-.046 2.472.462 3.331 1.526.982 1.17 1.66 2.924 2.035 5.263.42 2.339.56 4.912.42 7.718-.093 2.76-.445 5.59-1.053 8.49-.561 2.9-1.332 5.543-2.315 7.928-.982 2.386-2.151 4.326-3.508 5.823-1.356 1.497-2.852 2.246-4.49 2.246-1.45 0-2.62-.328-3.508-.983a6.56 6.56 0 0 1-1.895-2.596 13.757 13.757 0 0 1-.841-3.508 49.451 49.451 0 0 1-.14-3.649c0-1.965.186-3.976.56-6.034a96.983 96.983 0 0 1 1.333-6.174 85.57 85.57 0 0 1 1.755-6.174c.655-2.058 1.31-4.046 1.964-5.964 2.246-2.338 4.163-3.624 5.753-3.858.204-.03.405-.048.599-.054z" transform="matrix(1.33333 0 0 1.33333 -74.763 576.578)"/>
    <path style="font-size:71.8463px;font-family:'Racing Sans One';-inkscape-font-specification:'Racing Sans One';display:inline;fill:#fff;stroke:#3dc681;stroke-width:7.18284" d="m220.063-188.632.14 56.06h3.159v-21.471c.514.094 1.332.398 2.455.913a87.501 87.501 0 0 1 3.858 1.823c1.45.702 2.972 1.45 4.562 2.246l4.49 2.246c1.45.654 2.737 1.262 3.86 1.823 1.169.515 2.01.865 2.525 1.052.14.047.467.212.981.492.562.234 1.124.514 1.685.841.608.327 1.17.632 1.685.913.56.234.887.373.981.42a.54.54 0 0 1 .21.07h.351c.234 0 .468-.092.702-.28.28-.233.538-.49.772-.771.234-.281.397-.586.49-.913.14-.327.211-.585.211-.772 0-.187-.163-.374-.49-.561-.281-.187-.586-.397-.913-.631a32.571 32.571 0 0 1-1.333-.632c-.561-.187-1.497-.584-2.807-1.192-1.31-.655-2.782-1.38-4.42-2.175a704.769 704.769 0 0 1-5.262-2.737 145.73 145.73 0 0 0-5.332-2.736 151.653 151.653 0 0 0-4.701-2.386c-1.403-.749-2.479-1.286-3.227-1.613.842-.889 2.104-1.895 3.788-3.018a242.693 242.693 0 0 1 5.543-3.578c2.058-1.31 4.14-2.643 6.245-4a69.708 69.708 0 0 0 5.822-4.069c1.731-1.403 3.111-2.76 4.14-4.069 1.076-1.31 1.567-2.526 1.474-3.649-.094-1.17-.912-2.221-2.455-3.157-1.544-.982-4.046-1.823-7.508-2.525-2.245-.234-4.232-.118-5.963.35-1.73.468-3.299 1.053-4.702 1.755-1.404.702-2.619 1.403-3.648 2.105-1.029.655-1.94 1.076-2.736 1.263v-6.175c0-.467-.234-.725-.702-.772-.467-.093-.82-.14-1.053-.14a7.92 7.92 0 0 1-.561-.07 5.56 5.56 0 0 0-.913-.07c-.327-.048-.63-.093-.91-.14a5.415 5.415 0 0 0-.493-.07zm64.34 1.122c-.233 0-.375.047-.421.14-.234 1.17-.608 2.666-1.122 4.49a87.397 87.397 0 0 1-1.755 5.895 249.57 249.57 0 0 1-2.105 6.313 153.45 153.45 0 0 1-2.174 5.895 505.616 505.616 0 0 0-1.685 4.63c-.468 1.263-.796 2.059-.983 2.386h-.91c-1.45-1.076-2.925-2.433-4.422-4.07a124.86 124.86 0 0 1-4.42-5.262 436.758 436.758 0 0 1-4.28-5.473 89.948 89.948 0 0 0-3.858-4.982c-.468 0-.912.094-1.333.281-.42.188-.633.561-.633 1.122v.282c0 .093.024.164.07.21.843 2.106 1.943 4.187 3.3 6.245a74.403 74.403 0 0 0 4.419 5.893 183.452 183.452 0 0 0 4.841 5.473 310.31 310.31 0 0 1 4.49 4.841 14.374 14.374 0 0 1-.49 5.121 52.489 52.489 0 0 1-1.545 4.842 101.55 101.55 0 0 0-1.683 4.911 15.859 15.859 0 0 0-.772 4.912c0 1.216.608 1.824 1.824 1.824.093 0 .235-.024.422-.07h.42c1.544-4.818 2.831-8.77 3.86-11.857a326.387 326.387 0 0 1 2.596-7.648 543.054 543.054 0 0 1 1.683-4.771c.42-1.216.82-2.315 1.194-3.297a47.23 47.23 0 0 0 1.192-3.088c.374-1.123.819-2.572 1.333-4.35a283.74 283.74 0 0 0 2.035-7.016c.842-2.853 1.894-6.502 3.157-10.945.093-.655-.094-1.286-.561-1.894-.421-.655-.982-.983-1.684-.983zm-223.047.983c-.514 0-.935.116-1.263.35-.327.187-.467.702-.42 1.544a89.754 89.754 0 0 1 1.964 13.12c.328 4.35.515 8.7.561 13.05.047 4.35.07 8.7.07 13.05.047 4.303.281 8.537.702 12.7.421.608.936.981 1.544 1.122.655.187 1.24.187 1.754 0 .561-.187.982-.467 1.262-.841.328-.374.398-.773.211-1.194 0-3.321-.187-6.922-.56-10.805-.375-3.929-.796-7.905-1.263-11.928-.421-4.023-.82-7.998-1.194-11.927-.374-3.929-.561-7.53-.561-10.804.935 0 1.613.326 2.034.981.468.608.983 1.428 1.544 2.457l1.544 3.086a113.096 113.096 0 0 1 2.385 4.771c.889 1.73 1.824 3.578 2.807 5.543l2.806 5.613a137.36 137.36 0 0 1 2.316 4.842c.702 1.403 1.239 2.431 1.613 3.086.515 1.45 1.1 2.128 1.755 2.035.655-.14 1.356-.772 2.105-1.894.748-1.123 1.496-2.643 2.244-4.56.748-1.965 1.497-4.07 2.246-6.315a122.87 122.87 0 0 0 2.034-6.736 233.76 233.76 0 0 1 1.824-6.104 327.792 327.792 0 0 0 1.333-4.42c.374-1.17.655-1.707.842-1.613l4.07 46.727 4.841-1.894c-1.123-3.93-2.011-8.07-2.666-12.42a304.178 304.178 0 0 1-1.544-13.12 448.755 448.755 0 0 1-1.052-13.119c-.234-4.35-.562-8.513-.983-12.49-.093-.654-.233-1.122-.42-1.403-.14-.28-.421-.421-.842-.421s-.89.094-1.404.28c-.514.188-.817.398-.91.632-1.685 5.239-3.112 9.683-4.281 13.332a846.718 846.718 0 0 1-2.947 9.05 611.931 611.931 0 0 1-1.894 5.613c-.421 1.356-.773 2.362-1.054 3.017-.233.655-.42 1.052-.56 1.193a.673.673 0 0 1-.491.21c-.375-.56-.913-1.473-1.615-2.736a300.51 300.51 0 0 1-2.314-4.42 578.941 578.941 0 0 0-2.666-5.262 293.887 293.887 0 0 0-2.597-5.332l-2.244-4.562c-.655-1.31-1.17-2.267-1.544-2.875a139.34 139.34 0 0 0-1.615-2.668 14.021 14.021 0 0 0-1.964-2.666 9.483 9.483 0 0 0-2.525-2.035c-.89-.56-1.895-.84-3.018-.84zm83.143 0c-.514 0-.935.116-1.263.35-.327.187-.468.702-.421 1.544a89.753 89.753 0 0 1 1.964 13.12c.327 4.35.516 8.7.562 13.05.047 4.35.07 8.7.07 13.05.048 4.303.28 8.537.7 12.7.422.608.937.981 1.545 1.122.655.187 1.24.187 1.755 0 .561-.187.982-.467 1.262-.841.328-.374.398-.773.211-1.194 0-3.321-.188-6.922-.562-10.805-.374-3.929-.795-7.905-1.263-11.928a1286.22 1286.22 0 0 1-1.192-11.927c-.374-3.929-.561-7.53-.561-10.804.935 0 1.613.326 2.034.981.468.608.983 1.428 1.544 2.457l1.543 3.086a112.999 112.999 0 0 1 2.386 4.771c.889 1.73 1.824 3.578 2.807 5.543l2.806 5.613c.89 1.778 1.66 3.392 2.315 4.842.701 1.403 1.24 2.431 1.614 3.086.515 1.45 1.099 2.128 1.754 2.035.654-.14 1.356-.772 2.104-1.894.749-1.123 1.498-2.643 2.246-4.56.748-1.965 1.497-4.07 2.246-6.315.748-2.246 1.426-4.49 2.034-6.736a233.764 233.764 0 0 1 1.824-6.104 327.87 327.87 0 0 0 1.333-4.42c.374-1.17.655-1.707.842-1.613l4.07 46.727 4.841-1.894c-1.123-3.93-2.011-8.07-2.666-12.42a304.178 304.178 0 0 1-1.544-13.12 448.741 448.741 0 0 1-1.052-13.119c-.234-4.35-.562-8.513-.983-12.49-.093-.654-.233-1.122-.42-1.403-.14-.28-.421-.421-.842-.421s-.89.094-1.404.28c-.514.188-.819.398-.912.632-1.684 5.239-3.111 9.683-4.28 13.332a851.313 851.313 0 0 1-2.946 9.05 603.756 603.756 0 0 1-1.896 5.613c-.42 1.356-.77 2.362-1.052 3.017-.233.655-.42 1.052-.56 1.193a.673.673 0 0 1-.491.21c-.374-.56-.913-1.473-1.615-2.736a299.645 299.645 0 0 1-2.315-4.42 579.195 579.195 0 0 0-2.666-5.262 294.165 294.165 0 0 0-2.596-5.332l-2.246-4.562c-.655-1.31-1.168-2.267-1.542-2.875a139.36 139.36 0 0 0-1.615-2.668 14.021 14.021 0 0 0-1.964-2.666 9.49 9.49 0 0 0-2.527-2.035c-.888-.56-1.893-.84-3.016-.84zm218.064 0c-.514 0-.935.116-1.263.35-.327.187-.467.702-.42 1.544a89.756 89.756 0 0 1 1.964 13.12c.328 4.35.515 8.7.561 13.05v.1c-.663-.137-1.453-.13-2.384.04a28.156 28.156 0 0 0-3.159.772c-1.075.327-2.08.679-3.016 1.053-.935.327-1.66.514-2.175.56a46.213 46.213 0 0 1-1.403-3.157c-.468-1.31-.983-2.712-1.544-4.209a527.369 527.369 0 0 1-1.683-4.702 568.898 568.898 0 0 0-1.685-4.84c-.561-1.59-1.1-3.088-1.614-4.491a45.396 45.396 0 0 0-1.403-3.718c-.281-.327-.537-.75-.771-1.264a14.598 14.598 0 0 0-.772-1.472 5.953 5.953 0 0 0-.842-1.264c-.328-.374-.748-.561-1.263-.561-.327 0-.703.047-1.123.14-.375.094-.585.375-.632.843a953.65 953.65 0 0 0-1.964 16.768c-.468 4.77-.889 8.934-1.263 12.489a863.57 863.57 0 0 0-.912 9.051c-.188 2.48-.374 4.561-.562 6.245-.14 1.684-.256 3.04-.35 4.07-.093 1.028-.21 1.87-.351 2.525h3.578c.094-1.076.21-2.128.35-3.157.094-.842.165-1.73.211-2.666.094-.936.188-1.684.282-2.246.187-1.403.724-2.502 1.613-3.297.935-.842 2.035-1.497 3.298-1.964a27.498 27.498 0 0 1 3.929-1.265c1.357-.327 2.526-.724 3.508-1.192.749 1.029 1.356 2.315 1.824 3.858a69.795 69.795 0 0 1 1.474 4.912c.467 1.73.959 3.486 1.473 5.263.562 1.73 1.24 3.274 2.035 4.63l1.824-2.665-4.842-19.014c0-.14.352-.352 1.054-.633.701-.327 1.52-.63 2.455-.911.935-.328 1.8-.609 2.595-.842.842-.281 1.38-.42 1.615-.42.374 0 .7.068.981.209.328.093.632.21.913.351.241.08.483.187.725.302.021 2.94.047 5.879.047 8.818.047 4.304.28 8.538.701 12.7.421.609.936.982 1.544 1.123.655.187 1.24.187 1.754 0 .561-.187.982-.467 1.262-.841.328-.374.399-.773.211-1.194 0-3.321-.186-6.922-.56-10.805-.375-3.929-.796-7.905-1.263-11.928-.421-4.023-.82-7.998-1.194-11.927-.374-3.929-.561-7.53-.561-10.804.935 0 1.613.326 2.034.981.468.608.983 1.428 1.544 2.457l1.544 3.086a113.096 113.096 0 0 1 2.385 4.771c.889 1.73 1.824 3.578 2.807 5.543l2.806 5.613a137.37 137.37 0 0 1 2.316 4.842c.702 1.403 1.239 2.431 1.613 3.086.515 1.45 1.1 2.128 1.755 2.035.655-.14 1.357-.772 2.105-1.894.748-1.123 1.496-2.643 2.244-4.56.749-1.965 1.497-4.07 2.246-6.315.748-2.246 1.426-4.49 2.034-6.736a233.33 233.33 0 0 1 1.826-6.104 327.846 327.846 0 0 0 1.333-4.42c.374-1.17.653-1.707.84-1.613l4.07 46.727 4.841-1.894c-1.123-3.93-2.011-8.07-2.666-12.42a304.178 304.178 0 0 1-1.544-13.12 448.741 448.741 0 0 1-1.052-13.12c-.234-4.35-.562-8.512-.983-12.488-.093-.655-.233-1.123-.42-1.404-.14-.28-.421-.422-.842-.422s-.89.095-1.404.282c-.514.187-.817.397-.91.631-1.685 5.239-3.112 9.683-4.281 13.332a846.728 846.728 0 0 1-2.947 9.05 611.824 611.824 0 0 1-1.894 5.613c-.421 1.356-.771 2.362-1.052 3.017-.234.655-.422 1.052-.563 1.193a.673.673 0 0 1-.49.21c-.374-.56-.913-1.473-1.615-2.736a300.571 300.571 0 0 1-2.314-4.42 578.945 578.945 0 0 0-2.666-5.262 294.1 294.1 0 0 0-2.596-5.332l-2.245-4.562c-.655-1.31-1.17-2.267-1.544-2.875a139.36 139.36 0 0 0-1.615-2.668 14.021 14.021 0 0 0-1.964-2.666 9.483 9.483 0 0 0-2.525-2.035c-.889-.56-1.895-.84-3.018-.84zm-227.326 2.595c-1.637 0-3.39.258-5.262.772a45.08 45.08 0 0 0-5.543 1.824 61.196 61.196 0 0 0-5.402 2.385c-1.73.842-3.298 1.638-4.7 2.386 0-.28-.048-.748-.141-1.403a9.633 9.633 0 0 0-.35-1.965 6.323 6.323 0 0 0-.843-1.894c-.327-.561-.771-.913-1.333-1.053-.327-.047-.655.024-.983.211-.327.187-.63.445-.91.772-.235.28-.447.584-.634.911-.14.328-.21.609-.21.842 0 .094.048.257.142.491.093.234.186.515.28.842l.28.843c.14.28.21.467.21.56.561 3.743.984 7.438 1.264 11.087.28 3.601.468 7.203.561 10.804.094 3.602.117 7.227.07 10.875-.046 3.649-.07 7.368-.07 11.157.468.467.889.748 1.263.842.374.093.865.14 1.474.14 1.543-.374 3.367-1.146 5.472-2.315a111.577 111.577 0 0 0 6.525-4c2.198-1.496 4.35-2.97 6.455-4.42 2.152-1.497 4.047-2.736 5.684-3.718.655-.327.981-.772.981-1.333 0-.561-.187-.937-.56-1.124a2.784 2.784 0 0 0-1.264-.28c-.795.14-1.8.585-3.017 1.334-1.17.748-2.455 1.59-3.858 2.525-1.357.936-2.76 1.942-4.21 3.018a57.883 57.883 0 0 1-4.21 2.736c-1.357.795-2.596 1.426-3.718 1.894-1.076.42-1.919.515-2.527.281v-13.542c0-.608.42-1.263 1.263-1.965.842-.701 1.895-1.403 3.158-2.105a150.98 150.98 0 0 1 4.07-2.175 48.376 48.376 0 0 0 4.139-2.314c1.263-.796 2.315-1.591 3.157-2.387.842-.795 1.262-1.613 1.262-2.455-.374-.514-.771-.748-1.192-.701-.374 0-.748.116-1.122.35a3.785 3.785 0 0 0-.913.772l-.35.422-14.453 8.068c-.047-.468-.118-1.333-.211-2.596-.047-1.31-.118-2.666-.211-4.07a429.97 429.97 0 0 0-.28-4.068c-.047-1.263-.094-2.153-.14-2.668v-2.736l19.715-9.892c.467-.234.772-.515.912-.843a2.22 2.22 0 0 0 .28-1.122zm301.207 0c-1.637 0-3.39.258-5.262.772a45.08 45.08 0 0 0-5.543 1.824 61.198 61.198 0 0 0-5.402 2.385c-1.73.842-3.297 1.638-4.7 2.386 0-.28-.048-.748-.141-1.403a9.633 9.633 0 0 0-.35-1.965 6.323 6.323 0 0 0-.843-1.894c-.327-.561-.771-.913-1.333-1.053-.327-.047-.655.024-.983.211-.327.187-.63.445-.91.772-.235.28-.445.584-.632.911-.14.328-.211.609-.211.842 0 .094.047.257.14.491.094.234.187.515.28.842l.282.843c.14.28.21.467.21.56a154.73 154.73 0 0 1 1.263 11.087c.28 3.601.468 7.203.561 10.804.094 3.602.117 7.227.07 10.875-.046 3.649-.07 7.368-.07 11.157.468.467.889.748 1.263.842.374.093.865.14 1.474.14 1.543-.374 3.367-1.146 5.472-2.315a111.58 111.58 0 0 0 6.525-4c2.198-1.496 4.35-2.97 6.455-4.42 2.152-1.497 4.047-2.736 5.684-3.718.655-.327.981-.772.981-1.333 0-.561-.187-.937-.56-1.124a2.784 2.784 0 0 0-1.263-.28c-.796.14-1.802.585-3.018 1.334-1.17.748-2.455 1.59-3.858 2.525-1.357.936-2.76 1.942-4.21 3.018a57.883 57.883 0 0 1-4.21 2.736c-1.357.795-2.596 1.426-3.718 1.894-1.076.42-1.919.515-2.527.281v-13.542c0-.608.42-1.263 1.263-1.965.842-.701 1.895-1.403 3.158-2.105 1.263-.701 2.62-1.427 4.07-2.175a48.374 48.374 0 0 0 4.139-2.314c1.263-.796 2.315-1.591 3.157-2.387.842-.795 1.262-1.613 1.262-2.455-.374-.514-.771-.748-1.192-.701-.374 0-.748.116-1.122.35a3.785 3.785 0 0 0-.913.772l-.35.422-14.453 8.068c-.047-.468-.118-1.333-.211-2.596-.047-1.31-.118-2.666-.211-4.07a429.97 429.97 0 0 0-.28-4.068c-.047-1.263-.094-2.153-.14-2.668v-2.736l19.715-9.892c.467-.234.772-.515.912-.843a2.22 2.22 0 0 0 .28-1.122zm-195.683 1.013c.34.003.668.016.983.04 2.292.42 3.788 1.006 4.49 1.754.748.748.935 1.59.561 2.525-.327.89-1.122 1.872-2.385 2.948-1.216 1.075-2.643 2.174-4.28 3.297a78.226 78.226 0 0 1-5.262 3.157 219.661 219.661 0 0 1-9.192 4.911c-1.122.562-1.777.959-1.964 1.193 0-1.03.024-2.152.07-3.368l.282-3.647c.14-1.217.256-2.386.35-3.509.093-1.122.187-2.105.28-2.947.843-1.076 1.965-2.011 3.369-2.807a24.635 24.635 0 0 1 4.49-2.105 27.064 27.064 0 0 1 4.84-1.192c1.229-.175 2.351-.26 3.368-.25zm-34.787 2.912c-1.868-.01-3.696.81-5.486 2.46-2.338 2.198-4.396 5.87-6.174 11.015-1.777 5.098-2.947 11.717-3.508 19.856 0 1.356.141 2.9.422 4.632.327 1.683.84 3.32 1.542 4.91.702 1.543 1.637 2.854 2.807 3.93s2.62 1.613 4.35 1.613c2.433-.328 4.583-1.263 6.454-2.807 1.871-1.59 3.485-3.53 4.842-5.823 1.356-2.292 2.41-4.865 3.158-7.718a49.997 49.997 0 0 0 1.613-8.7c.327-2.993.374-5.94.14-8.84-.187-2.9-.631-5.52-1.333-7.859-2.058-3.555-4.373-5.682-6.946-6.384a6.706 6.706 0 0 0-1.88-.285zm109.02 1.548c-2.199 0-4.374.702-6.526 2.105-2.105 1.403-4.116 3.273-6.034 5.612-1.918 2.292-3.695 4.865-5.332 7.718a71.885 71.885 0 0 0-4.14 8.56c-1.169 2.854-2.057 5.59-2.665 8.21-.562 2.572-.749 4.747-.562 6.524.047 1.263.444 2.362 1.193 3.297a11.501 11.501 0 0 0 2.736 2.246 12.797 12.797 0 0 0 3.438 1.333c1.216.234 2.339.352 3.368.352a14.32 14.32 0 0 0 5.613-1.124 29.575 29.575 0 0 0 5.121-2.946 41.625 41.625 0 0 0 4.702-3.79 138.68 138.68 0 0 1 4.28-3.858 143.38 143.38 0 0 1-.21 2.946c-.047 1.17-.118 2.433-.211 3.79-.047 1.31-.07 2.666-.07 4.069s.07 2.736.21 3.999c.14 1.263.375 2.409.702 3.438.374 1.029.842 1.825 1.403 2.386l2.737-1.825a124.69 124.69 0 0 1-.843-7.578 87.206 87.206 0 0 1-.28-8.559c.046-2.853.28-5.613.7-8.279.422-2.666 1.124-4.982 2.106-6.946l.56-.282.843-.56c.328-.188.609-.375.842-.562.281-.187.444-.326.491-.42.234-.515.281-.89.14-1.124a.843.843 0 0 0-.56-.56 2.872 2.872 0 0 0-.913-.141h-.772c-.608 0-1.45.047-2.525.14a36.937 36.937 0 0 0-3.509.491 63.866 63.866 0 0 0-3.858.842 29.42 29.42 0 0 0-3.579 1.124c-1.029.374-1.894.795-2.595 1.263-.655.467-.983.982-.983 1.544h10.945a44.674 44.674 0 0 1-3.438 6.383 33.098 33.098 0 0 1-4.56 5.543c-1.637 1.637-3.39 3.017-5.262 4.14-1.87 1.076-3.742 1.707-5.613 1.894-1.076 0-2.153-.023-3.228-.07-1.076-.094-2.034-.304-2.876-.632a5.08 5.08 0 0 1-1.966-1.612c-.514-.749-.77-1.779-.77-3.088.28-2.666.817-5.262 1.613-7.787a59.397 59.397 0 0 1 3.017-7.369 69.061 69.061 0 0 1 4.07-6.946 132.46 132.46 0 0 1 4.84-6.595c.422-.467 1.263-.935 2.526-1.403a48.541 48.541 0 0 1 3.929-1.403c1.356-.468 2.55-.889 3.579-1.263 1.075-.374 1.614-.679 1.614-.913 0-.514-.118-.911-.352-1.192a1.929 1.929 0 0 0-.91-.702 3.955 3.955 0 0 0-1.124-.28 4.349 4.349 0 0 0-1.052-.14zm-108.504 3.103c1.36-.046 2.47.463 3.33 1.527.982 1.17 1.66 2.923 2.034 5.262.421 2.339.562 4.912.422 7.718-.094 2.76-.445 5.59-1.053 8.49-.562 2.9-1.332 5.543-2.315 7.928-.982 2.386-2.151 4.328-3.508 5.825-1.356 1.496-2.854 2.244-4.491 2.244-1.45 0-2.618-.327-3.507-.982a6.564 6.564 0 0 1-1.896-2.597 13.746 13.746 0 0 1-.84-3.507 49.479 49.479 0 0 1-.141-3.649c0-1.964.187-3.975.561-6.033a96.983 96.983 0 0 1 1.333-6.175 85.56 85.56 0 0 1 1.753-6.174 299 299 0 0 1 1.966-5.963c2.245-2.34 4.162-3.626 5.753-3.86a5.59 5.59 0 0 1 .599-.054zm135.139.177a.555.555 0 0 1 .237.088c.281.14.444.233.491.28a80.91 80.91 0 0 1 1.964 5.052 88.813 88.813 0 0 1 1.685 5.332c.515 1.777.98 3.554 1.402 5.332.468 1.73.89 3.415 1.264 5.052-.421.748-1.03 1.427-1.825 2.035a13.257 13.257 0 0 1-2.526 1.473c-.935.375-1.918.68-2.947.913-.982.234-1.918.35-2.806.35 0-2.666.117-5.263.351-7.789.28-2.572.538-5.167.772-7.787.047-.748.116-1.66.21-2.736.14-1.123.258-2.198.351-3.227.094-1.076.164-2.011.211-2.807l.14-1.194c.42-.28.763-.402 1.026-.367z" transform="matrix(1.33333 0 0 1.33333 -74.763 576.578)"/>
    <path style="font-size:71.8463px;font-family:'Racing Sans One';-inkscape-font-specification:'Racing Sans One';fill:#fff;stroke:#fff;stroke-width:7.18284;stroke-opacity:1" d="M360.79-187.715c-.514 0-.936.117-1.264.351-.327.187-.467.702-.42 1.544a89.753 89.753 0 0 1 1.964 13.12c.328 4.35.515 8.701.561 13.051v.1c-.663-.138-1.453-.13-2.384.04a28.154 28.154 0 0 0-3.158.771 37.61 37.61 0 0 0-3.017 1.053c-.935.328-1.66.515-2.175.561a46.213 46.213 0 0 1-1.403-3.158 286.05 286.05 0 0 0-1.544-4.208 527.596 527.596 0 0 1-1.683-4.702 569.372 569.372 0 0 0-1.685-4.84 394.725 394.725 0 0 0-1.613-4.491 45.39 45.39 0 0 0-1.403-3.718c-.28-.328-.538-.75-.772-1.264a14.619 14.619 0 0 0-.772-1.474 5.943 5.943 0 0 0-.842-1.263c-.328-.374-.748-.56-1.263-.56a5.24 5.24 0 0 0-1.122.14c-.374.093-.585.374-.631.842a954.995 954.995 0 0 0-1.966 16.768c-.468 4.771-.889 8.935-1.263 12.49a859.086 859.086 0 0 0-.911 9.05c-.187 2.48-.375 4.561-.562 6.245-.14 1.684-.257 3.04-.35 4.07-.094 1.029-.212 1.87-.352 2.525h3.579c.093-1.076.21-2.128.351-3.157.094-.842.163-1.73.21-2.666.093-.935.187-1.684.28-2.245.188-1.403.726-2.502 1.615-3.298.936-.842 2.034-1.498 3.297-1.965a27.493 27.493 0 0 1 3.93-1.263c1.356-.328 2.525-.725 3.507-1.192.749 1.029 1.356 2.314 1.824 3.858a69.793 69.793 0 0 1 1.474 4.912c.468 1.73.959 3.485 1.473 5.263.562 1.73 1.24 3.274 2.035 4.63l1.824-2.666-4.841-19.015c0-.14.351-.35 1.053-.631.701-.328 1.52-.63 2.455-.912a54.268 54.268 0 0 1 2.597-.842c.842-.28 1.379-.42 1.613-.42.374 0 .702.069.983.21.327.093.63.21.91.35.242.081.484.187.726.303.021 2.94.047 5.878.047 8.818.047 4.303.28 8.537.701 12.7.421.608.936.982 1.544 1.122.655.187 1.24.187 1.754 0 .561-.187.983-.468 1.264-.842.327-.374.397-.772.21-1.192 0-3.322-.187-6.923-.562-10.805-.374-3.93-.795-7.906-1.262-11.928-.421-4.023-.818-7.998-1.193-11.927-.374-3.93-.562-7.53-.562-10.805.935 0 1.615.327 2.036.982.468.608.981 1.427 1.542 2.456l1.544 3.087a112.998 112.998 0 0 1 2.387 4.77c.888 1.731 1.823 3.579 2.805 5.544l2.806 5.613a137.359 137.359 0 0 1 2.316 4.841c.702 1.403 1.24 2.432 1.615 3.087.514 1.45 1.098 2.128 1.753 2.034.655-.14 1.357-.771 2.105-1.894.748-1.122 1.497-2.642 2.246-4.56.748-1.964 1.495-4.07 2.244-6.315.748-2.245 1.426-4.49 2.034-6.735a233.317 233.317 0 0 1 1.826-6.104 327.87 327.87 0 0 0 1.333-4.421c.374-1.17.655-1.706.842-1.613l4.07 46.727 4.84-1.894c-1.122-3.929-2.012-8.069-2.667-12.419a304.16 304.16 0 0 1-1.542-13.12 448.9 448.9 0 0 1-1.054-13.121c-.234-4.35-.56-8.512-.981-12.488-.094-.655-.235-1.123-.422-1.403-.14-.28-.42-.422-.84-.422-.422 0-.89.094-1.404.281-.515.187-.82.398-.913.632-1.684 5.238-3.11 9.683-4.28 13.331a846.834 846.834 0 0 1-2.947 9.05 612.182 612.182 0 0 1-1.894 5.613c-.421 1.357-.771 2.363-1.052 3.018-.234.655-.42 1.052-.561 1.192a.676.676 0 0 1-.492.211c-.374-.561-.911-1.473-1.613-2.736a299.645 299.645 0 0 1-2.316-4.421 579.065 579.065 0 0 0-2.666-5.262 294.1 294.1 0 0 0-2.596-5.332l-2.245-4.561c-.655-1.31-1.17-2.268-1.544-2.876a138.7 138.7 0 0 0-1.613-2.667 14.027 14.027 0 0 0-1.966-2.666 9.483 9.483 0 0 0-2.525-2.035c-.889-.561-1.894-.842-3.016-.842zm73.882 2.597c-1.638 0-3.393.257-5.264.772a45.08 45.08 0 0 0-5.543 1.824 61.196 61.196 0 0 0-5.402 2.384c-1.73.842-3.297 1.638-4.7 2.387 0-.281-.048-.749-.141-1.404a9.631 9.631 0 0 0-.35-1.964 6.323 6.323 0 0 0-.843-1.894c-.327-.561-.771-.913-1.333-1.053-.327-.047-.654.023-.981.21a3.49 3.49 0 0 0-.913.773c-.234.28-.444.583-.631.91-.14.328-.211.609-.211.843 0 .093.047.257.14.49.094.235.187.516.28.843l.282.842c.14.28.21.468.21.561.562 3.742.983 7.438 1.263 11.086.28 3.602.468 7.203.561 10.805.094 3.602.117 7.226.07 10.875a870.57 870.57 0 0 0-.07 11.156c.468.468.889.749 1.263.842.374.094.866.141 1.474.141 1.543-.374 3.367-1.147 5.472-2.316a111.598 111.598 0 0 0 6.526-3.999c2.199-1.497 4.35-2.97 6.454-4.42 2.152-1.498 4.047-2.736 5.684-3.719.655-.327.981-.771.981-1.333 0-.56-.187-.936-.56-1.123a2.784 2.784 0 0 0-1.263-.28c-.796.14-1.8.585-3.017 1.333a248.06 248.06 0 0 0-3.86 2.525c-1.356.936-2.76 1.942-4.21 3.018a57.883 57.883 0 0 1-4.21 2.736c-1.356.796-2.594 1.427-3.717 1.894-1.076.421-1.917.514-2.525.28v-13.54c0-.609.42-1.264 1.262-1.965.842-.702 1.894-1.403 3.157-2.105 1.263-.702 2.62-1.427 4.07-2.175a48.376 48.376 0 0 0 4.139-2.315c1.263-.795 2.316-1.59 3.158-2.386.842-.795 1.263-1.613 1.263-2.455-.374-.515-.773-.749-1.194-.702-.374 0-.748.116-1.122.35a3.785 3.785 0 0 0-.913.772l-.35.422-14.453 8.068c-.047-.467-.118-1.332-.211-2.595-.047-1.31-.116-2.666-.21-4.07a429.88 429.88 0 0 0-.281-4.07c-.047-1.263-.094-2.152-.14-2.666v-2.737l19.715-9.892c.467-.234.772-.515.912-.842a2.22 2.22 0 0 0 .282-1.122zm-121.452 5.472c-2.199 0-4.373.702-6.525 2.105-2.104 1.404-4.117 3.274-6.035 5.612-1.917 2.292-3.695 4.865-5.332 7.719a71.883 71.883 0 0 0-4.14 8.56c-1.169 2.853-2.057 5.59-2.665 8.21-.562 2.572-.749 4.746-.561 6.523.046 1.263.444 2.362 1.192 3.298a11.502 11.502 0 0 0 2.736 2.245 12.797 12.797 0 0 0 3.438 1.333c1.216.234 2.339.352 3.368.352a14.32 14.32 0 0 0 5.613-1.124 29.588 29.588 0 0 0 5.123-2.945 41.607 41.607 0 0 0 4.7-3.79 138.665 138.665 0 0 1 4.28-3.858c-.048.795-.117 1.776-.21 2.946-.047 1.169-.118 2.433-.211 3.79-.047 1.309-.07 2.665-.07 4.068 0 1.404.07 2.737.21 4 .14 1.262.375 2.408.702 3.437.374 1.03.842 1.825 1.403 2.387l2.737-1.826a124.688 124.688 0 0 1-.843-7.577 87.2 87.2 0 0 1-.28-8.56 59.27 59.27 0 0 1 .7-8.279c.422-2.666 1.124-4.981 2.106-6.946l.562-.281.841-.561a6.57 6.57 0 0 0 .842-.561c.281-.187.444-.327.491-.42.234-.515.281-.89.14-1.124a.843.843 0 0 0-.56-.561 2.87 2.87 0 0 0-.913-.14h-.772c-.608 0-1.45.046-2.525.14a36.954 36.954 0 0 0-3.508.49 63.856 63.856 0 0 0-3.859.843c-1.31.327-2.503.702-3.578 1.123-1.03.375-1.895.795-2.596 1.263-.655.468-.983.981-.983 1.543h10.945a44.688 44.688 0 0 1-3.438 6.385 33.098 33.098 0 0 1-4.56 5.543c-1.637 1.637-3.39 3.017-5.262 4.14-1.87 1.075-3.742 1.706-5.613 1.894-1.076 0-2.151-.024-3.227-.07-1.076-.094-2.035-.305-2.877-.632a5.075 5.075 0 0 1-1.964-1.613c-.515-.748-.772-1.778-.772-3.088.28-2.666.817-5.261 1.613-7.787a59.396 59.396 0 0 1 3.017-7.368 69.06 69.06 0 0 1 4.07-6.946 132.443 132.443 0 0 1 4.84-6.595c.422-.468 1.263-.936 2.526-1.403a48.568 48.568 0 0 1 3.93-1.404c1.357-.468 2.549-.888 3.578-1.262 1.075-.375 1.614-.68 1.614-.913 0-.515-.116-.912-.35-1.192a1.933 1.933 0 0 0-.913-.702 3.945 3.945 0 0 0-1.122-.28 4.358 4.358 0 0 0-1.053-.14zm26.635 3.28a.555.555 0 0 1 .237.088c.281.14.444.233.491.28a80.898 80.898 0 0 1 1.964 5.052 88.806 88.806 0 0 1 1.685 5.332c.515 1.778.982 3.555 1.403 5.332.468 1.73.889 3.415 1.263 5.053-.42.748-1.028 1.426-1.824 2.034a13.27 13.27 0 0 1-2.527 1.474 19.63 19.63 0 0 1-2.945.912c-.983.234-1.918.35-2.807.35 0-2.666.116-5.262.35-7.788.28-2.573.538-5.168.772-7.787.047-.749.118-1.66.211-2.737.14-1.122.257-2.198.35-3.227.094-1.075.164-2.011.211-2.806l.14-1.194c.422-.28.763-.403 1.026-.368z" transform="matrix(1.33333 0 0 1.33333 -74.763 576.578)"/>
</svg>
