<svg xmlns="http://www.w3.org/2000/svg" height="48" viewBox="0 96 960 960" width="48">
    <defs>
        <linearGradient id="a" x1="50%" y1="0%" x2="50%" y2="100%">
            <stop offset="0%" stop-color="#fff">
                <animate attributeName="stop-color" values="#fff; #2068d5; #fff" dur="4s"
                    repeatCount="indefinite" />
            </stop>
            <stop offset="100%" stop-color="#2068d5">
                <animate attributeName="stop-color" values="#2068d5; #fff; #2068d5" dur="4s"
                    repeatCount="indefinite" />
            </stop>
        </linearGradient>
    </defs>
    <path fill="url('#a')"
        d="M360 196v-60h240v60H360Zm90 447h60V413h-60v230Zm30 332q-74 0-139.5-28.5T226 869q-49-49-77.5-114.5T120 615q0-74 28.5-139.5T226 361q49-49 114.5-77.5T480 255q67 0 126 22.5T711 340l51-51 42 42-51 51q36 40 61.5 97T840 615q0 74-28.5 139.5T734 869q-49 49-114.5 77.5T480 975Zm0-60q125 0 212.5-87.5T780 615q0-125-87.5-212.5T480 315q-125 0-212.5 87.5T180 615q0 125 87.5 212.5T480 915Zm0-299Z" />
</svg>